<svg height="512pt" viewBox="0 -51 512 512" width="512pt" xmlns="http://www.w3.org/2000/svg"><path d="m493.652344 211.371094c.476562 4.878906-1.136719 9.734375-4.4375 13.359375-3.300782 3.625-7.980469 5.683593-12.882813 5.667969h-34.132812c-8.683594-.011719-16-6.484376-17.070313-15.101563-11.980468-93.734375-91.699218-163.992187-186.195312-164.097656-4.265625 0-8.617188.171875-12.800782.511719-89.429687 6.164062-162.039062 74.667968-173.398437 163.585937-.839844 6.699219-5.515625 12.292969-11.960937 14.3125-6.441407 2.019531-13.472657.09375-17.988282-4.925781-2.890625-3.109375-4.507812-7.191406-4.523437-11.4375-.015625-.625.011719-1.253906.085937-1.875 11.945313-109.824219 107.261719-196.609375 224.851563-202.496094 4.265625-.257812 8.535156-.339844 12.800781-.339844 123.390625 0 225.28125 89.085938 237.652344 202.835938zm0 0" fill="#c81e1e"/><path d="m468.054688 211.371094c.472656 4.878906-1.140626 9.734375-4.441407 13.359375s-7.980469 5.683593-12.882812 5.667969h-8.53125c-8.683594-.011719-16-6.484376-17.070313-15.101563-11.980468-93.734375-91.699218-163.992187-186.195312-164.097656-4.265625 0-8.617188.171875-12.800782.511719-4.179687-.339844-8.53125 8.023437-12.800781 8.023437-95.488281 0-150.527343 69.714844-162.132812 162.132813-.425781 3.582031-26.109375.253906-28.414063 2.816406-2.890625-3.109375-4.507812-7.191406-4.523437-11.4375-.015625-.625.011719-1.253906.085937-1.875 11.945313-109.824219 107.261719-196.609375 224.851563-202.496094 117.589843 5.886719 212.90625 92.671875 224.855469 202.496094zm0 0" fill="#f44335"/><path d="m231.722656 365.222656c60.984375 11.023438 121.109375-23.214844 142.75-81.285156 21.640625-58.074219-1.417968-123.308594-54.746094-154.878906l-37.964843-14.914063c-60.558594-13.167969-121.855469 18.933594-145.523438 76.207031-23.671875 57.273438-2.925781 123.28125 49.257813 156.710938zm0 0" fill="#cfd8dc"/><path d="m216.527344 359.253906c53.359375 8.492188 109.398437-25.238281 132.109375-83.058594 23.308593-59.332031 3.699219-123.785156-43.679688-152.941406l-34.074219-13.382812c-54.558593-10.890625-112.792968 22.984375-136.097656 82.316406-22.714844 57.820312-4.617187 120.671875 40.253906 150.769531zm0 0" fill="#f5f5f5"/><path d="m320.683594 135.9375c-.007813 3.210938-.617188 6.394531-1.792969 9.386719l-84.222656 214.441406c-5.1875 13.148437-20.023438 19.632813-33.195313 14.507813-3.574218-1.394532-6.761718-3.617188-9.300781-6.488282-6.785156-7.132812-8.789063-17.570312-5.121094-26.707031l84.222657-214.445313c3.4375-8.644531 11.261718-14.777343 20.480468-16.039062 4.300782-.550781 8.667969-.019531 12.714844 1.535156 9.765625 3.871094 16.1875 13.300782 16.214844 23.808594zm0 0" fill="#545c60"/><path d="m298.667969 128c-.007813 3.214844-.617188 6.398438-1.792969 9.386719l-84.222656 214.441406c-3.394532 8.667969-11.25 14.785156-20.480469 15.957031-6.785156-7.132812-8.789063-17.570312-5.121094-26.707031l84.222657-214.445313c3.4375-8.644531 11.261718-14.777343 20.480468-16.039062 6.742188 14.164062 6.914063 15.785156 6.914063 17.40625zm0 0" fill="#7f8e94"/><path d="m469.332031 341.332031c.011719 10.367188-6.230469 19.71875-15.804687 23.691407-9.578125 3.972656-20.601563 1.78125-27.933594-5.550782-7.332031-7.332031-9.523438-18.355468-5.550781-27.933594 3.972656-9.574218 13.324219-15.816406 23.691406-15.804687 6.792969-.011719 13.308594 2.683594 18.109375 7.488281 4.804688 4.800782 7.5 11.316406 7.488281 18.109375zm0 0" fill="#fec108"/><path d="m443.734375 341.332031c.011719 9.15625-4.871094 17.617188-12.800781 22.1875-7.921875-4.578125-12.800782-13.035156-12.800782-22.1875 0-9.148437 4.878907-17.605469 12.800782-22.183593 7.929687 4.570312 12.8125 13.03125 12.800781 22.183593zm0 0" fill="#ffdc00"/><path d="m476.351562 238.933594h-34.132812c-12.980469-.03125-23.917969-9.6875-25.5625-22.5625-11.335938-89.519532-87.484375-156.632813-177.722656-156.636719-90.234375 0-166.386719 67.113281-177.726563 156.632813-1.78125 14.039062-14.53125 24.027343-28.585937 22.40625-14.058594-1.621094-24.195313-14.25-22.738282-28.328126 13.015626-119.96875 118.824219-210.445312 246.117188-210.445312s233.101562 90.476562 246.117188 210.449219c.769531 7.222656-1.5625 14.433593-6.417969 19.839843-4.929688 5.492188-11.964844 8.636719-19.347657 8.644532zm-237.417968-196.265625c98.792968.109375 182.140625 73.566406 194.65625 171.566406.550781 4.347656 4.242187 7.617187 8.628906 7.632813h34.132812c2.535157-.003907 4.949219-1.085938 6.640626-2.976563 1.636718-1.78125 2.425781-4.1875 2.15625-6.59375-12.074219-111.300781-110.582032-195.230469-229.148438-195.230469s-217.074219 83.929688-229.148438 195.226563c-.269531 2.40625.519532 4.8125 2.15625 6.597656 1.691407 1.890625 4.105469 2.972656 6.640626 2.976563 4.386718-.015626 8.078124-3.285157 8.625-7.636719 12.523437-97.996094 95.867187-171.453125 194.660156-171.5625zm0 0"/><path d="m185.492188 355.597656c-1.628907 0-3.222657-.46875-4.59375-1.347656-55.660157-35.65625-77.792969-106.0625-52.546876-167.15625 25.25-61.089844 90.628907-95.332031 155.222657-81.289062 4.570312 1.035156 7.449219 5.558593 6.453125 10.136718s-5.5 7.496094-10.085938 6.539063c-56.519531-12.285157-113.726562 17.675781-135.816406 71.132812s-2.726562 115.058594 45.976562 146.261719c3.191407 2.042969 4.652344 5.949219 3.585938 9.585938-1.066406 3.640624-4.40625 6.140624-8.195312 6.136718zm0 0"/><path d="m254.441406 375.800781c-8.128906 0-16.242187-.730469-24.242187-2.183593-3.003907-.539063-5.496094-2.640626-6.527344-5.515626s-.449219-6.082031 1.527344-8.410156c1.976562-2.328125 5.046875-3.421875 8.050781-2.867187 56.914062 10.28125 113.023438-21.671875 133.21875-75.867188 20.195312-54.199219-1.320312-115.078125-51.085938-144.546875-2.648437-1.539062-4.269531-4.382812-4.246093-7.445312.023437-3.066406 1.6875-5.882813 4.359375-7.378906 2.671875-1.5 5.945312-1.449219 8.570312.132812 52.960938 31.347656 78.410156 94.253906 62.144532 153.609375-16.265626 59.359375-70.222657 100.503906-131.769532 100.476563zm0 0"/><path d="m210.867188 384.574219c-11.292969-.003907-21.851563-5.585938-28.210938-14.917969-6.359375-9.328125-7.699219-21.199219-3.574219-31.710938l84.242188-214.449218c6.894531-17.546875 26.703125-26.183594 44.25-19.292969 17.546875 6.894531 26.183593 26.703125 19.292969 44.25l-84.242188 214.449219c-5.136719 13.054687-17.730469 21.648437-31.757812 21.675781zm84.25-265.664063c-7.027344 0-13.335938 4.296875-15.910157 10.835938l-84.238281 214.441406c-1.65625 4.214844-1.570312 8.914062.238281 13.0625 1.8125 4.148438 5.195313 7.410156 9.410157 9.0625h.007812c8.769531 3.441406 18.667969-.875 22.117188-9.640625l84.242187-214.445313c2.0625-5.25 1.398437-11.179687-1.777344-15.84375-3.175781-4.664062-8.449219-7.457031-14.089843-7.460937zm0 0"/><path d="m443.734375 375.464844c-18.851563 0-34.132813-15.28125-34.132813-34.132813 0-18.851562 15.28125-34.132812 34.132813-34.132812s34.132813 15.28125 34.132813 34.132812c-.019532 18.84375-15.289063 34.113281-34.132813 34.132813zm0-51.199219c-9.425781 0-17.066406 7.640625-17.066406 17.066406s7.640625 17.066407 17.066406 17.066407 17.066406-7.640626 17.066406-17.066407c-.011719-9.417969-7.644531-17.054687-17.066406-17.066406zm0 0"/><path d="m443.734375 298.667969c-4.714844 0-8.535156-3.820313-8.535156-8.535157v-8.53125c0-4.714843 3.820312-8.535156 8.535156-8.535156 4.710937 0 8.53125 3.820313 8.53125 8.535156v8.53125c0 4.714844-3.820313 8.535157-8.53125 8.535157zm0 0"/><path d="m443.734375 409.601562c-4.714844 0-8.535156-3.820312-8.535156-8.535156v-8.53125c0-4.714844 3.820312-8.535156 8.535156-8.535156 4.710937 0 8.53125 3.820312 8.53125 8.535156v8.53125c0 4.714844-3.820313 8.535156-8.53125 8.535156zm0 0"/><path d="m479.933594 313.664062c-3.453125 0-6.566406-2.082031-7.886719-5.269531-1.320313-3.191406-.589844-6.863281 1.851563-9.304687l6.042968-6.03125c2.15625-2.15625 5.300782-2.996094 8.246094-2.207032 2.945312.792969 5.246094 3.09375 6.03125 6.039063.789062 2.945313-.054688 6.085937-2.210938 8.242187l-6.042968 6.035157c-1.597656 1.597656-3.769532 2.496093-6.03125 2.496093zm0 0"/><path d="m401.492188 392.105469c-3.453126.003906-6.566407-2.078125-7.886719-5.269531-1.320313-3.1875-.589844-6.859376 1.855469-9.300782l6.039062-6.03125c2.160156-2.15625 5.300781-2.996094 8.246094-2.207031 2.945312.789063 5.246094 3.089844 6.035156 6.039063.785156 2.945312-.054688 6.085937-2.214844 8.242187l-6.039062 6.03125c-1.601563 1.601563-3.769532 2.5-6.035156 2.496094zm0 0"/><path d="m407.535156 313.664062c-2.265625 0-4.433594-.898437-6.035156-2.496093l-6.042969-6.035157c-2.15625-2.15625-3-5.296874-2.210937-8.242187.789062-2.945313 3.089844-5.246094 6.035156-6.039063 2.945312-.789062 6.085938.050782 8.242188 2.207032l6.042968 6.03125c2.441406 2.441406 3.175782 6.113281 1.851563 9.304687-1.320313 3.1875-4.433594 5.269531-7.882813 5.269531zm0 0"/><path d="m485.972656 392.105469c-2.261718.003906-4.433594-.894531-6.03125-2.496094l-6.042968-6.03125c-2.15625-2.15625-3-5.296875-2.210938-8.242187.789062-2.949219 3.085938-5.25 6.03125-6.039063s6.089844.050781 8.246094 2.207031l6.042968 6.03125c2.441407 2.441406 3.171876 6.113282 1.851563 9.300782-1.320313 3.191406-4.433594 5.273437-7.886719 5.269531zm0 0"/><path d="m392.535156 349.867188h-8.535156c-4.710938 0-8.535156-3.820313-8.535156-8.535157 0-4.710937 3.824218-8.53125 8.535156-8.53125h8.535156c4.710938 0 8.53125 3.820313 8.53125 8.53125 0 4.714844-3.820312 8.535157-8.53125 8.535157zm0 0"/><path d="m503.464844 349.867188h-8.53125c-4.714844 0-8.535156-3.820313-8.535156-8.535157 0-4.710937 3.820312-8.53125 8.535156-8.53125h8.53125c4.714844 0 8.535156 3.820313 8.535156 8.53125 0 4.714844-3.820312 8.535157-8.535156 8.535157zm0 0"/><path d="m68.265625 409.601562c-4.710937 0-8.53125-3.820312-8.53125-8.535156v-119.464844c0-4.714843 3.820313-8.535156 8.53125-8.535156 4.714844 0 8.535156 3.820313 8.535156 8.535156v119.464844c0 4.714844-3.820312 8.535156-8.535156 8.535156zm0 0"/><path d="m68.257812 315.734375c-1.683593 0-3.328124-.5-4.722656-1.433594l-25.601562-17.066406c-3.871094-2.632813-4.898438-7.894531-2.300782-11.792969 2.597657-3.894531 7.847657-4.96875 11.765626-2.40625l25.601562 17.066406c3.128906 2.085938 4.523438 5.976563 3.433594 9.574219-1.09375 3.601563-4.414063 6.0625-8.175782 6.058594zm0 0"/><path d="m68.273438 315.734375c-3.761719.003906-7.082032-2.457031-8.171876-6.058594-1.09375-3.597656.300782-7.488281 3.433594-9.574219l25.597656-17.066406c2.535157-1.726562 5.804688-1.957031 8.558594-.605468 2.753906 1.351562 4.570313 4.074218 4.757813 7.136718s-1.28125 5.988282-3.847657 7.667969l-25.601562 17.066406c-1.398438.933594-3.042969 1.433594-4.726562 1.433594zm0 0"/><path d="m42.675781 401.066406c-3.761719.003906-7.082031-2.457031-8.175781-6.054687-1.089844-3.601563.304688-7.492188 3.433594-9.578125l25.601562-17.066406c2.535156-1.726563 5.800782-1.957032 8.554688-.605469 2.753906 1.351562 4.570312 4.078125 4.757812 7.136719.191406 3.0625-1.28125 5.988281-3.847656 7.667968l-25.601562 17.066406c-1.398438.933594-3.042969 1.433594-4.722657 1.433594zm0 0"/><path d="m93.859375 401.066406c-1.683594 0-3.328125-.5-4.726563-1.433594l-25.597656-17.066406c-3.875-2.632812-4.902344-7.894531-2.304687-11.789062 2.597656-3.898438 7.851562-4.972656 11.769531-2.410156l25.601562 17.066406c3.128907 2.085937 4.523438 5.976562 3.429688 9.578125-1.089844 3.597656-4.410156 6.058593-8.171875 6.054687zm0 0"/><path d="m128 349.867188h-119.464844c-4.714844 0-8.535156-3.820313-8.535156-8.535157 0-4.710937 3.820312-8.53125 8.535156-8.53125h119.464844c4.710938 0 8.535156 3.820313 8.535156 8.53125 0 4.714844-3.824218 8.535157-8.535156 8.535157zm0 0"/><path d="m102.390625 349.867188c-3.144531-.003907-6.03125-1.738282-7.515625-4.511719-1.484375-2.773438-1.320312-6.136719.425781-8.753907l17.066407-25.601562c2.632812-3.871094 7.894531-4.898438 11.789062-2.300781 3.898438 2.597656 4.972656 7.847656 2.410156 11.765625l-17.066406 25.601562c-1.582031 2.378906-4.25 3.804688-7.109375 3.800782zm0 0"/><path d="m119.476562 375.464844c-2.859374.007812-5.527343-1.417969-7.109374-3.796875l-17.066407-25.601563c-1.726562-2.535156-1.957031-5.804687-.605469-8.558594 1.351563-2.75 4.078126-4.570312 7.136719-4.757812 3.0625-.1875 5.988281 1.28125 7.667969 3.851562l17.066406 25.597657c1.746094 2.617187 1.910156 5.984375.425782 8.757812-1.484376 2.773438-4.371094 4.507813-7.515626 4.507813zm0 0"/><path d="m34.140625 349.867188c-2.855469.003906-5.523437-1.421876-7.105469-3.800782l-17.066406-25.601562c-1.726562-2.535156-1.957031-5.800782-.605469-8.554688 1.351563-2.753906 4.074219-4.570312 7.136719-4.757812 3.0625-.191406 5.988281 1.28125 7.667969 3.847656l17.066406 25.601562c1.742187 2.617188 1.90625 5.980469.425781 8.753907-1.484375 2.773437-4.371094 4.507812-7.519531 4.511719zm0 0"/><path d="m17.058594 375.464844c-3.144532 0-6.035156-1.734375-7.515625-4.507813-1.484375-2.773437-1.320313-6.140625.425781-8.757812l17.066406-25.597657c1.675782-2.570312 4.601563-4.039062 7.664063-3.851562s5.789062 2.007812 7.136719 4.757812c1.351562 2.753907 1.121093 6.023438-.601563 8.558594l-17.066406 25.601563c-1.585938 2.378906-4.253907 3.804687-7.109375 3.796875zm0 0"/></svg>