<?xml version="1.0" encoding="UTF-8" standalone="no"?>
<!-- Generator: Adobe Illustrator 19.0.0, SVG Export Plug-In . SVG Version: 6.00 Build 0)  -->

<svg
   xmlns:dc="http://purl.org/dc/elements/1.1/"
   xmlns:cc="http://creativecommons.org/ns#"
   xmlns:rdf="http://www.w3.org/1999/02/22-rdf-syntax-ns#"
   xmlns:svg="http://www.w3.org/2000/svg"
   xmlns="http://www.w3.org/2000/svg"
   xmlns:sodipodi="http://sodipodi.sourceforge.net/DTD/sodipodi-0.dtd"
   xmlns:inkscape="http://www.inkscape.org/namespaces/inkscape"
   version="1.1"
   id="Layer_1"
   x="0px"
   y="0px"
   viewBox="0 0 512 512"
   style="enable-background:new 0 0 512 512;"
   xml:space="preserve"
   sodipodi:docname="electric_car-off.svg"
   inkscape:version="0.92.5 (2060ec1f9f, 2020-04-08)"><metadata
   id="metadata67"><rdf:RDF><cc:Work
       rdf:about=""><dc:format>image/svg+xml</dc:format><dc:type
         rdf:resource="http://purl.org/dc/dcmitype/StillImage" /></cc:Work></rdf:RDF></metadata><defs
   id="defs65" /><sodipodi:namedview
   pagecolor="#ffffff"
   bordercolor="#666666"
   borderopacity="1"
   objecttolerance="10"
   gridtolerance="10"
   guidetolerance="10"
   inkscape:pageopacity="0"
   inkscape:pageshadow="2"
   inkscape:window-width="640"
   inkscape:window-height="480"
   id="namedview63"
   showgrid="false"
   inkscape:zoom="0.4609375"
   inkscape:cx="256"
   inkscape:cy="256"
   inkscape:window-x="72"
   inkscape:window-y="34"
   inkscape:window-maximized="0"
   inkscape:current-layer="Layer_1" />
<path
   style="fill:#FFDE17;"
   d="M28.765,312.391L28.765,312.391v86.292h402.697v-86.292l0,0c-10.47-24.43-34.492-40.27-61.071-40.27  H89.836C63.257,272.121,39.235,287.961,28.765,312.391z"
   id="path2" />
<rect
   x="11.507"
   y="398.681"
   style="fill:#EFEFEF;"
   width="437.214"
   height="46.022"
   id="rect4" />
<path
   style="fill:#0EDDF0;"
   d="M314.377,162.818c-56.176,0-112.352,0-168.529,0c-11.331,0-31.437,14.266-42.568,30.644  c-13.643,26.22-24.629,52.439-32.958,78.659c106.526,0,213.054,0,319.58,0c-8.328-26.22-19.313-52.439-32.958-78.659  C345.816,177.082,325.71,162.818,314.377,162.818z"
   id="path6" />
<g
   id="g12">
	<path
   style="fill:#A7A9AC;"
   d="M94.164,496.481H49.658c-8.362,0-15.14-6.779-15.14-15.14v-36.635h74.787v36.635   C109.305,489.702,102.525,496.481,94.164,496.481z"
   id="path8" />
	<path
   style="fill:#A7A9AC;"
   d="M410.569,496.481h-44.506c-8.362,0-15.14-6.779-15.14-15.14v-36.635h74.787v36.635   C425.709,489.702,418.93,496.481,410.569,496.481z"
   id="path10" />
</g>
<g
   id="g18">
	<circle
   style="fill:#F7941E;"
   cx="103.908"
   cy="335.4"
   r="23.011"
   id="circle14" />
	<circle
   style="fill:#F7941E;"
   cx="356.836"
   cy="335.4"
   r="23.011"
   id="circle16" />
</g>
<path
   style="fill:#A7A9AC;"
   d="M421.721,96.058h-34.625V15.518h34.625c12.649,0,22.903,10.254,22.903,22.903v34.733  C444.624,85.804,434.37,96.058,421.721,96.058z"
   id="path20" />
<g
   id="g30">
	<path
   style="fill:#231F20;"
   d="M103.911,300.885c-19.033,0-34.517,15.484-34.517,34.517c0,19.033,15.484,34.517,34.517,34.517   s34.517-15.484,34.517-34.517C138.428,316.369,122.943,300.885,103.911,300.885z M103.911,346.908   c-6.344,0-11.506-5.161-11.506-11.506s5.161-11.506,11.506-11.506c6.344,0,11.506,5.161,11.506,11.506   S110.254,346.908,103.911,346.908z"
   id="path22" />
	<path
   style="fill:#231F20;"
   d="M356.843,300.885c-19.033,0-34.517,15.484-34.517,34.517c0,19.033,15.484,34.517,34.517,34.517   c19.033,0,34.517-15.484,34.517-34.517C391.36,316.369,375.876,300.885,356.843,300.885z M356.843,346.908   c-6.344,0-11.506-5.161-11.506-11.506s5.161-11.506,11.506-11.506s11.506,5.161,11.506,11.506S363.186,346.908,356.843,346.908z"
   id="path24" />
	<path
   style="fill:#231F20;"
   d="M202.683,228.217c2.945,0,5.889-1.123,8.136-3.37l0.575-0.575c4.493-4.493,4.493-11.778,0-16.272   c-4.494-4.493-11.777-4.493-16.272,0l-0.575,0.575c-4.493,4.493-4.493,11.778,0,16.272   C196.794,227.093,199.739,228.217,202.683,228.217z"
   id="path26" />
	<path
   style="fill:#231F20;"
   d="M462.696,44.282h-6.566v-5.861c0-18.973-15.436-34.409-34.409-34.409h-34.625   c-6.353,0-11.506,5.151-11.506,11.506v5.753h-30.038c-6.353,0-11.506,5.151-11.506,11.506s5.152,11.506,11.506,11.506h30.038   v23.011h-30.038c-6.353,0-11.506,5.151-11.506,11.506s5.152,11.506,11.506,11.506h30.038v5.753c0,6.355,5.152,11.506,11.506,11.506   h34.625c18.973,0,34.409-15.436,34.409-34.409v-5.861h6.566c14.498,0,26.294,11.796,26.294,26.294v213.064   c0,14.498-11.796,26.294-26.294,26.294h-19.729v-20.554c0-1.558-0.316-3.1-0.931-4.532c-8.187-19.105-23.392-33.7-41.851-41.329   c-8.409-26.037-19.512-52.394-33.034-78.379c-0.208-0.398-0.438-0.784-0.69-1.155c-11.661-17.162-34.89-35.684-52.086-35.684   H145.85c-17.192,0-40.422,18.522-52.085,35.682c-0.253,0.372-0.483,0.758-0.691,1.156c-13.521,25.984-24.624,52.342-33.034,78.379   c-18.458,7.629-33.663,22.224-41.851,41.329c-0.613,1.432-0.931,2.973-0.931,4.532v74.787h-5.753   C5.152,387.178,0,392.329,0,398.684v46.022c0,6.355,5.152,11.506,11.506,11.506h11.506v25.129   c0,14.693,11.954,26.646,26.646,26.646h44.506c14.693,0,26.646-11.953,26.646-26.646v-25.129h218.607v25.129   c0,14.693,11.954,26.646,26.646,26.646h44.506c14.693,0,26.646-11.953,26.646-26.646v-25.129h11.506   c6.353,0,11.506-5.151,11.506-11.506v-46.022c0-6.355-5.152-11.506-11.506-11.506h-5.753v-31.222h19.729   c27.187,0,49.305-22.118,49.305-49.305V93.587C512.001,66.401,489.883,44.282,462.696,44.282z M433.119,73.156   c0,6.284-5.113,11.397-11.397,11.397h-23.119V27.025h23.119c6.284,0,11.397,5.113,11.397,11.397V73.156z M86.351,260.616   c7.285-20.373,16.275-40.901,26.815-61.223c10.647-15.325,27.372-25.07,32.684-25.07h168.529c5.313,0,22.04,9.744,32.684,25.07   c10.54,20.321,19.53,40.85,26.815,61.223h-92.295l32.892-32.892c4.493-4.493,4.493-11.778,0-16.272   c-4.494-4.493-11.777-4.493-16.272,0l-49.163,49.164h-73.988l5.71-5.71c4.493-4.493,4.493-11.778,0-16.272   c-4.494-4.493-11.777-4.493-16.272,0l-21.981,21.981H86.351V260.616z M23.012,433.2v-23.011h149.573V433.2H23.012z M97.799,481.34   c0,2.004-1.63,3.635-3.635,3.635H49.658c-2.004,0-3.635-1.63-3.635-3.635v-25.129h51.775V481.34z M195.597,433.2v-23.011h69.034   V433.2H195.597z M414.203,481.34c0,2.004-1.63,3.635-3.635,3.635h-44.506c-2.004,0-3.635-1.63-3.635-3.635v-25.129h51.775V481.34z    M437.215,433.2H287.642v-23.011h149.573V433.2z M40.271,387.177v-72.308c9.1-19.052,28.313-31.242,49.565-31.242h280.555   c21.252,0,40.465,12.19,49.565,31.242v72.308H40.271z"
   id="path28" />
</g>
<g
   id="g32">
</g>
<g
   id="g34">
</g>
<g
   id="g36">
</g>
<g
   id="g38">
</g>
<g
   id="g40">
</g>
<g
   id="g42">
</g>
<g
   id="g44">
</g>
<g
   id="g46">
</g>
<g
   id="g48">
</g>
<g
   id="g50">
</g>
<g
   id="g52">
</g>
<g
   id="g54">
</g>
<g
   id="g56">
</g>
<g
   id="g58">
</g>
<g
   id="g60">
</g>
<path
   inkscape:connector-curvature="0"
   style="fill:#ff3d3d;fill-opacity:0.7;stroke:#730000;stroke-width:6.526371"
   d="M 348.28659,4.54567 324.3961,29.50579 375.59,76.306 l -51.1939,46.80022 23.89049,24.96011 54.60682,-49.92023 47.78097,46.80022 27.30341,-24.96011 L 426.7839,73.18599 477.97779,26.38577 450.67438,4.54567 399.48049,51.34589 Z"
   id="path12" /></svg>