<svg height="512pt" viewBox="-85 0 512 512.05696" width="512pt" xmlns="http://www.w3.org/2000/svg"><path d="m136.5625 468.621094v26.371094c-.015625 4.707031-3.828125 8.519531-8.535156 8.53125h-34.132813c-4.707031-.011719-8.519531-3.824219-8.53125-8.53125v-30.296876zm0 0" fill="#545c60"/><path d="m256.027344 464.695312v30.296876c-.011719 4.707031-3.824219 8.519531-8.53125 8.53125h-34.132813c-4.707031-.011719-8.519531-3.824219-8.535156-8.53125v-26.371094zm0 0" fill="#545c60"/><path d="m332.828125 39.308594v399.363281c.011719 8.1875-5.785156 15.238281-13.824219 16.808594-53.09375 10.066406-107.078125 14.667969-161.109375 13.738281-45.480469-.65625-90.820312-5.25-135.507812-13.738281-8.039063-1.570313-13.835938-8.621094-13.824219-16.808594v-399.363281c-.011719-8.1875 5.785156-15.238282 13.824219-16.808594 9.640625-1.792969 19.199219-3.5 28.84375-4.949219 8.53125-1.28125 17.066406-2.390625 25.597656-3.414062v139.519531c-.050781 46.902344 34.59375 86.613281 81.066406 92.929688 4.234375.65625 8.515625.972656 12.800781.9375 24.898438.015624 48.78125-9.871094 66.390626-27.476563 17.605468-17.605469 27.488281-41.492187 27.476562-66.390625v-139.519531c18.261719 2.132812 36.351562 4.949219 54.441406 8.363281 8.039063 1.570312 13.835938 8.621094 13.824219 16.808594zm0 0" fill="#cfd8dc"/><path d="m307.230469 39.308594v399.363281c.011719 8.1875-5.785157 15.238281-13.824219 16.808594-44.691406 8.488281-90.027344 13.082031-135.511719 13.738281-45.480469-.65625-90.820312-5.25-135.507812-13.738281-8.039063-1.570313-13.835938-8.621094-13.824219-16.808594v-399.363281c-.011719-8.1875 5.785156-15.238282 13.824219-16.808594 9.640625-1.792969 44.800781-3.5 54.441406-4.949219v136.105469c-.011719 24.898438 9.871094 48.785156 27.476563 66.390625 17.609374 17.605469 41.492187 27.492187 66.390624 27.476563 4.285157.035156 8.566407-.28125 12.800782-.9375 46.472656-6.316407 81.117187-46.027344 81.066406-92.929688v-139.519531c8.53125 1.023437-8.535156 2.132812 0 3.414062 9.640625 1.449219 19.199219 3.15625 28.84375 4.949219 8.039062 1.570312 13.835938 8.621094 13.824219 16.808594zm0 0" fill="#f5f5f5"/><path d="m264.5625 14.136719v139.519531c.011719 24.898438-9.871094 48.785156-27.476562 66.390625-17.609376 17.605469-41.492188 27.492187-66.390626 27.476563-4.285156.035156-8.566406-.28125-12.800781-.9375-46.472656-6.316407-81.117187-46.027344-81.066406-92.929688v-139.519531c62.359375-7.417969 125.375-7.417969 187.734375 0zm0 0" fill="#545c60"/><path d="m238.960938 14.136719v139.519531c.050781 46.902344-34.589844 86.613281-81.066407 92.929688-46.472656-6.316407-81.117187-46.027344-81.066406-92.929688v-139.519531c26.914063-3.179688 53.96875-5.003907 81.066406-5.460938 27.097657.457031 54.152344 2.28125 81.066407 5.460938zm0 0" fill="#7f8e94"/><path d="m230.429688 153.65625c.011718 15.847656-6.277344 31.046875-17.484376 42.25-11.203124 11.207031-26.402343 17.496094-42.25 17.484375-4.300781-.015625-8.589843-.472656-12.800781-1.367187-27.40625-6.019532-46.933593-30.304688-46.933593-58.367188s19.527343-52.34375 46.933593-58.367188c4.210938-.894531 8.5-1.351562 12.800781-1.367187 15.847657-.011719 31.046876 6.28125 42.25 17.484375 11.207032 11.203125 17.496094 26.40625 17.484376 42.25zm0 0" fill="#00838f"/><path d="m204.828125 153.65625c0-32.234375-21.011719-58.367188-46.933594-58.367188-25.917969 0-46.933593 26.132813-46.933593 58.367188 0 32.238281 21.015624 58.367188 46.933593 58.367188 25.921875 0 46.933594-26.128907 46.933594-58.367188zm0 0" fill="#00bcd4"/><path d="m128.027344 290.191406h85.335937c4.710938 0 8.53125 3.820313 8.53125 8.53125v34.132813c0 4.714843-3.820312 8.535156-8.53125 8.535156h-85.335937c-4.710938 0-8.53125-3.820313-8.53125-8.535156v-34.132813c0-4.710937 3.820312-8.53125 8.53125-8.53125zm0 0" fill="#90ac00"/><path d="m128.027344 290.191406h59.734375c4.714843 0 8.535156 3.820313 8.535156 8.53125v34.132813c0 4.714843-3.820313 8.535156-8.535156 8.535156h-59.734375c-4.710938 0-8.53125-3.820313-8.53125-8.535156v-34.132813c0-4.710937 3.820312-8.53125 8.53125-8.53125zm0 0" fill="#a4c400"/><path d="m170.695312 477.980469c-50.304687-.011719-100.496093-4.738281-149.917968-14.117188-12.066406-2.324219-20.777344-12.902343-20.7500002-25.191406v-399.363281c-.0273438-12.289063 8.6875002-22.863282 20.7539062-25.191406 99.058594-18.824219 200.773438-18.824219 299.832031 0 12.066407 2.328124 20.777344 12.902343 20.75 25.191406v399.363281c.027344 12.289063-8.6875 22.863281-20.753906 25.191406-49.421875 9.375-99.613281 14.105469-149.914063 14.117188zm0-460.914063c-49.238281.015625-98.367187 4.640625-146.742187 13.816406-4.011719.796876-6.894531 4.335938-6.859375 8.425782v399.363281c-.03125 4.085937 2.84375 7.625 6.855469 8.421875 96.960937 18.417969 196.523437 18.417969 293.488281 0h.003906c4.011719-.796875 6.886719-4.335938 6.855469-8.421875v-399.363281c.03125-4.085938-2.84375-7.625-6.855469-8.421875-48.378906-9.175781-97.507812-13.804688-146.746094-13.820313zm0 0"/><path d="m170.695312 256.058594c-56.527343-.066406-102.335937-45.875-102.398437-102.402344v-139.519531c0-4.710938 3.820313-8.53125 8.53125-8.53125 4.714844 0 8.535156 3.820312 8.535156 8.53125v139.519531c0 47.128906 38.203125 85.335938 85.332031 85.335938 47.128907 0 85.332032-38.207032 85.332032-85.335938v-139.519531c0-4.710938 3.820312-8.53125 8.535156-8.53125 4.710938 0 8.53125 3.820312 8.53125 8.53125v139.519531c-.0625 56.527344-45.871094 102.335938-102.398438 102.402344zm0 0"/><path d="m170.695312 221.921875c-37.703124 0-68.265624-30.5625-68.265624-68.265625s30.5625-68.265625 68.265624-68.265625c37.703126 0 68.265626 30.5625 68.265626 68.265625-.042969 37.683594-30.582032 68.222656-68.265626 68.265625zm0-119.464844c-28.277343 0-51.199218 22.921875-51.199218 51.199219s22.921875 51.199219 51.199218 51.199219c28.277344 0 51.199219-22.921875 51.199219-51.199219-.03125-28.261719-22.933593-51.167969-51.199219-51.199219zm0 0"/><path d="m170.6875 162.191406c-3.144531-.003906-6.035156-1.738281-7.519531-4.511718-1.480469-2.773438-1.316407-6.140626.425781-8.757813l17.070312-25.597656c1.675782-2.566407 4.601563-4.039063 7.664063-3.847657 3.0625.1875 5.785156 2.003907 7.136719 4.757813 1.351562 2.753906 1.121094 6.019531-.601563 8.554687l-17.066406 25.601563c-1.585937 2.378906-4.253906 3.804687-7.109375 3.800781zm0 0"/><path d="m128.027344 512.058594h-34.132813c-9.421875-.011719-17.054687-7.648438-17.066406-17.066406v-30.296876c0-4.710937 3.820313-8.53125 8.535156-8.53125 4.710938 0 8.53125 3.820313 8.53125 8.53125v30.296876h34.132813v-26.371094c0-4.710938 3.820312-8.53125 8.535156-8.53125 4.710938 0 8.53125 3.820312 8.53125 8.53125v26.371094c-.007812 9.417968-7.644531 17.054687-17.066406 17.066406zm0 0"/><path d="m247.496094 512.058594h-34.132813c-9.421875-.011719-17.058593-7.648438-17.066406-17.066406v-26.371094c0-4.710938 3.820313-8.53125 8.53125-8.53125 4.714844 0 8.535156 3.820312 8.535156 8.53125v26.371094h34.132813v-30.296876c0-4.710937 3.820312-8.53125 8.53125-8.53125 4.714844 0 8.535156 3.820313 8.535156 8.53125v30.296876c-.011719 9.417968-7.644531 17.054687-17.066406 17.066406zm0 0"/><path d="m213.363281 349.921875h-85.335937c-9.421875-.007813-17.054688-7.644531-17.066406-17.066406v-34.132813c.011718-9.421875 7.644531-17.054687 17.066406-17.066406h85.335937c9.421875.011719 17.054688 7.644531 17.066407 17.066406v34.132813c-.011719 9.421875-7.644532 17.058593-17.066407 17.066406zm-85.335937-51.199219v34.132813h85.347656l-.011719-34.132813zm0 0"/><path d="m42.695312 290.191406c-4.714843 0-8.535156-3.820312-8.535156-8.535156v-8.53125c0-4.714844 3.820313-8.535156 8.535156-8.535156 4.710938 0 8.535157 3.820312 8.535157 8.535156v8.53125c0 4.714844-3.824219 8.535156-8.535157 8.535156zm0 0"/><path d="m42.695312 426.722656c-4.714843 0-8.535156-3.820312-8.535156-8.53125v-102.402344c0-4.710937 3.820313-8.53125 8.535156-8.53125 4.710938 0 8.535157 3.820313 8.535157 8.53125v102.402344c0 4.710938-3.824219 8.53125-8.535157 8.53125zm0 0"/><path d="m119.496094 384.058594h-17.066406c-4.714844 0-8.535157-3.820313-8.535157-8.535156 0-4.710938 3.820313-8.53125 8.535157-8.53125h17.066406c4.710937 0 8.53125 3.820312 8.53125 8.53125 0 4.714843-3.820313 8.535156-8.53125 8.535156zm0 0"/><path d="m119.496094 418.191406h-17.066406c-4.714844 0-8.535157-3.820312-8.535157-8.535156 0-4.710938 3.820313-8.53125 8.535157-8.53125h17.066406c4.710937 0 8.53125 3.820312 8.53125 8.53125 0 4.714844-3.820313 8.535156-8.53125 8.535156zm0 0"/><path d="m238.960938 384.058594h-17.066407c-4.710937 0-8.53125-3.820313-8.53125-8.535156 0-4.710938 3.820313-8.53125 8.53125-8.53125h17.066407c4.714843 0 8.535156 3.820312 8.535156 8.53125 0 4.714843-3.820313 8.535156-8.535156 8.535156zm0 0"/><path d="m238.960938 418.191406h-17.066407c-4.710937 0-8.53125-3.820312-8.53125-8.535156 0-4.710938 3.820313-8.53125 8.53125-8.53125h17.066407c4.714843 0 8.535156 3.820312 8.535156 8.53125 0 4.714844-3.820313 8.535156-8.535156 8.535156zm0 0"/></svg>