<?xml version="1.0" encoding="UTF-8" standalone="no"?>
<svg
   xmlns:dc="http://purl.org/dc/elements/1.1/"
   xmlns:cc="http://creativecommons.org/ns#"
   xmlns:rdf="http://www.w3.org/1999/02/22-rdf-syntax-ns#"
   xmlns:svg="http://www.w3.org/2000/svg"
   xmlns="http://www.w3.org/2000/svg"
   xmlns:sodipodi="http://sodipodi.sourceforge.net/DTD/sodipodi-0.dtd"
   xmlns:inkscape="http://www.inkscape.org/namespaces/inkscape"
   height="512pt"
   viewBox="-85 0 512 512.05696"
   width="512pt"
   version="1.1"
   id="svg48"
   sodipodi:docname="heater_display-unk.svg"
   inkscape:version="0.92.5 (2060ec1f9f, 2020-04-08)">
  <metadata
     id="metadata54">
    <rdf:RDF>
      <cc:Work
         rdf:about="">
        <dc:format>image/svg+xml</dc:format>
        <dc:type
           rdf:resource="http://purl.org/dc/dcmitype/StillImage" />
      </cc:Work>
    </rdf:RDF>
  </metadata>
  <defs
     id="defs52" />
  <sodipodi:namedview
     pagecolor="#ffffff"
     bordercolor="#666666"
     borderopacity="1"
     objecttolerance="10"
     gridtolerance="10"
     guidetolerance="10"
     inkscape:pageopacity="0"
     inkscape:pageshadow="2"
     inkscape:window-width="1684"
     inkscape:window-height="1369"
     id="namedview50"
     showgrid="false"
     inkscape:zoom="0.34570312"
     inkscape:cx="353.94735"
     inkscape:cy="123.57667"
     inkscape:window-x="72"
     inkscape:window-y="34"
     inkscape:window-maximized="0"
     inkscape:current-layer="svg48" />
  <path
     d="m136.5625 468.621094v26.371094c-.015625 4.707031-3.828125 8.519531-8.535156 8.53125h-34.132813c-4.707031-.011719-8.519531-3.824219-8.53125-8.53125v-30.296876zm0 0"
     fill="#545c60"
     id="path2" />
  <path
     d="m256.027344 464.695312v30.296876c-.011719 4.707031-3.824219 8.519531-8.53125 8.53125h-34.132813c-4.707031-.011719-8.519531-3.824219-8.535156-8.53125v-26.371094zm0 0"
     fill="#545c60"
     id="path4" />
  <path
     d="m332.828125 39.308594v399.363281c.011719 8.1875-5.785156 15.238281-13.824219 16.808594-53.09375 10.066406-107.078125 14.667969-161.109375 13.738281-45.480469-.65625-90.820312-5.25-135.507812-13.738281-8.039063-1.570313-13.835938-8.621094-13.824219-16.808594v-399.363281c-.011719-8.1875 5.785156-15.238282 13.824219-16.808594 9.640625-1.792969 19.199219-3.5 28.84375-4.949219 8.53125-1.28125 17.066406-2.390625 25.597656-3.414062v139.519531c-.050781 46.902344 34.59375 86.613281 81.066406 92.929688 4.234375.65625 8.515625.972656 12.800781.9375 24.898438.015624 48.78125-9.871094 66.390626-27.476563 17.605468-17.605469 27.488281-41.492187 27.476562-66.390625v-139.519531c18.261719 2.132812 36.351562 4.949219 54.441406 8.363281 8.039063 1.570312 13.835938 8.621094 13.824219 16.808594zm0 0"
     fill="#cfd8dc"
     id="path6" />
  <path
     d="m307.230469 39.308594v399.363281c.011719 8.1875-5.785157 15.238281-13.824219 16.808594-44.691406 8.488281-90.027344 13.082031-135.511719 13.738281-45.480469-.65625-90.820312-5.25-135.507812-13.738281-8.039063-1.570313-13.835938-8.621094-13.824219-16.808594v-399.363281c-.011719-8.1875 5.785156-15.238282 13.824219-16.808594 9.640625-1.792969 44.800781-3.5 54.441406-4.949219v136.105469c-.011719 24.898438 9.871094 48.785156 27.476563 66.390625 17.609374 17.605469 41.492187 27.492187 66.390624 27.476563 4.285157.035156 8.566407-.28125 12.800782-.9375 46.472656-6.316407 81.117187-46.027344 81.066406-92.929688v-139.519531c8.53125 1.023437-8.535156 2.132812 0 3.414062 9.640625 1.449219 19.199219 3.15625 28.84375 4.949219 8.039062 1.570312 13.835938 8.621094 13.824219 16.808594zm0 0"
     fill="#f5f5f5"
     id="path8" />
  <path
     d="m264.5625 14.136719v139.519531c.011719 24.898438-9.871094 48.785156-27.476562 66.390625-17.609376 17.605469-41.492188 27.492187-66.390626 27.476563-4.285156.035156-8.566406-.28125-12.800781-.9375-46.472656-6.316407-81.117187-46.027344-81.066406-92.929688v-139.519531c62.359375-7.417969 125.375-7.417969 187.734375 0zm0 0"
     fill="#545c60"
     id="path10" />
  <path
     d="m238.960938 14.136719v139.519531c.050781 46.902344-34.589844 86.613281-81.066407 92.929688-46.472656-6.316407-81.117187-46.027344-81.066406-92.929688v-139.519531c26.914063-3.179688 53.96875-5.003907 81.066406-5.460938 27.097657.457031 54.152344 2.28125 81.066407 5.460938zm0 0"
     fill="#7f8e94"
     id="path12" />
  <path
     d="m128.027344 290.191406h85.335937c4.710938 0 8.53125 3.820313 8.53125 8.53125v34.132813c0 4.714843-3.820312 8.535156-8.53125 8.535156h-85.335937c-4.710938 0-8.53125-3.820313-8.53125-8.535156v-34.132813c0-4.710937 3.820312-8.53125 8.53125-8.53125zm0 0"
     fill="#90ac00"
     id="path18" />
  <path
     d="m128.027344 290.191406h59.734375c4.714843 0 8.535156 3.820313 8.535156 8.53125v34.132813c0 4.714843-3.820313 8.535156-8.535156 8.535156h-59.734375c-4.710938 0-8.53125-3.820313-8.53125-8.535156v-34.132813c0-4.710937 3.820312-8.53125 8.53125-8.53125zm0 0"
     fill="#a4c400"
     id="path20" />
  <path
     d="m170.695312 477.980469c-50.304687-.011719-100.496093-4.738281-149.917968-14.117188-12.066406-2.324219-20.777344-12.902343-20.7500002-25.191406v-399.363281c-.0273438-12.289063 8.6875002-22.863282 20.7539062-25.191406 99.058594-18.824219 200.773438-18.824219 299.832031 0 12.066407 2.328124 20.777344 12.902343 20.75 25.191406v399.363281c.027344 12.289063-8.6875 22.863281-20.753906 25.191406-49.421875 9.375-99.613281 14.105469-149.914063 14.117188zm0-460.914063c-49.238281.015625-98.367187 4.640625-146.742187 13.816406-4.011719.796876-6.894531 4.335938-6.859375 8.425782v399.363281c-.03125 4.085937 2.84375 7.625 6.855469 8.421875 96.960937 18.417969 196.523437 18.417969 293.488281 0h.003906c4.011719-.796875 6.886719-4.335938 6.855469-8.421875v-399.363281c.03125-4.085938-2.84375-7.625-6.855469-8.421875-48.378906-9.175781-97.507812-13.804688-146.746094-13.820313zm0 0"
     id="path22" />
  <path
     d="m170.695312 256.058594c-56.527343-.066406-102.335937-45.875-102.398437-102.402344v-139.519531c0-4.710938 3.820313-8.53125 8.53125-8.53125 4.714844 0 8.535156 3.820312 8.535156 8.53125v139.519531c0 47.128906 38.203125 85.335938 85.332031 85.335938 47.128907 0 85.332032-38.207032 85.332032-85.335938v-139.519531c0-4.710938 3.820312-8.53125 8.535156-8.53125 4.710938 0 8.53125 3.820312 8.53125 8.53125v139.519531c-.0625 56.527344-45.871094 102.335938-102.398438 102.402344zm0 0"
     id="path24" />
  <path
     d="m128.027344 512.058594h-34.132813c-9.421875-.011719-17.054687-7.648438-17.066406-17.066406v-30.296876c0-4.710937 3.820313-8.53125 8.535156-8.53125 4.710938 0 8.53125 3.820313 8.53125 8.53125v30.296876h34.132813v-26.371094c0-4.710938 3.820312-8.53125 8.535156-8.53125 4.710938 0 8.53125 3.820312 8.53125 8.53125v26.371094c-.007812 9.417968-7.644531 17.054687-17.066406 17.066406zm0 0"
     id="path30" />
  <path
     d="m247.496094 512.058594h-34.132813c-9.421875-.011719-17.058593-7.648438-17.066406-17.066406v-26.371094c0-4.710938 3.820313-8.53125 8.53125-8.53125 4.714844 0 8.535156 3.820312 8.535156 8.53125v26.371094h34.132813v-30.296876c0-4.710937 3.820312-8.53125 8.53125-8.53125 4.714844 0 8.535156 3.820313 8.535156 8.53125v30.296876c-.011719 9.417968-7.644531 17.054687-17.066406 17.066406zm0 0"
     id="path32" />
  <path
     d="m213.363281 349.921875h-85.335937c-9.421875-.007813-17.054688-7.644531-17.066406-17.066406v-34.132813c.011718-9.421875 7.644531-17.054687 17.066406-17.066406h85.335937c9.421875.011719 17.054688 7.644531 17.066407 17.066406v34.132813c-.011719 9.421875-7.644532 17.058593-17.066407 17.066406zm-85.335937-51.199219v34.132813h85.347656l-.011719-34.132813zm0 0"
     id="path34" />
  <path
     d="m42.695312 290.191406c-4.714843 0-8.535156-3.820312-8.535156-8.535156v-8.53125c0-4.714844 3.820313-8.535156 8.535156-8.535156 4.710938 0 8.535157 3.820312 8.535157 8.535156v8.53125c0 4.714844-3.824219 8.535156-8.535157 8.535156zm0 0"
     id="path36" />
  <path
     d="m42.695312 426.722656c-4.714843 0-8.535156-3.820312-8.535156-8.53125v-102.402344c0-4.710937 3.820313-8.53125 8.535156-8.53125 4.710938 0 8.535157 3.820313 8.535157 8.53125v102.402344c0 4.710938-3.824219 8.53125-8.535157 8.53125zm0 0"
     id="path38" />
  <path
     d="m119.496094 384.058594h-17.066406c-4.714844 0-8.535157-3.820313-8.535157-8.535156 0-4.710938 3.820313-8.53125 8.535157-8.53125h17.066406c4.710937 0 8.53125 3.820312 8.53125 8.53125 0 4.714843-3.820313 8.535156-8.53125 8.535156zm0 0"
     id="path40" />
  <path
     d="m119.496094 418.191406h-17.066406c-4.714844 0-8.535157-3.820312-8.535157-8.535156 0-4.710938 3.820313-8.53125 8.535157-8.53125h17.066406c4.710937 0 8.53125 3.820312 8.53125 8.53125 0 4.714844-3.820313 8.535156-8.53125 8.535156zm0 0"
     id="path42" />
  <path
     d="m238.960938 384.058594h-17.066407c-4.710937 0-8.53125-3.820313-8.53125-8.535156 0-4.710938 3.820313-8.53125 8.53125-8.53125h17.066407c4.714843 0 8.535156 3.820312 8.535156 8.53125 0 4.714843-3.820313 8.535156-8.535156 8.535156zm0 0"
     id="path44" />
  <path
     d="m238.960938 418.191406h-17.066407c-4.710937 0-8.53125-3.820312-8.53125-8.535156 0-4.710938 3.820313-8.53125 8.53125-8.53125h17.066407c4.714843 0 8.535156 3.820312 8.535156 8.53125 0 4.714844-3.820313 8.535156-8.535156 8.535156zm0 0"
     id="path46" />
  <text
     xml:space="preserve"
     style="font-style:normal;font-weight:normal;font-size:185.70651245px;line-height:25.35000038;font-family:sans-serif;letter-spacing:0px;word-spacing:0px;fill:#000000;fill-opacity:1;stroke:none;stroke-width:1.36548901"
     x="110.13576"
     y="214.85789"
     id="text3761"
     transform="scale(1.0972305,0.91138554)"><tspan
       sodipodi:role="line"
       id="tspan3759"
       x="110.13576"
       y="214.85789"
       style="font-size:185.70651245px;stroke-width:1.36548901">?</tspan></text>
  <path
     style="stroke-width:0.72316384"
     d="m 327.37441,203.97061 c 0.66377,-21.58307 2.41864,-24.6812 24.21687,-42.75377 18.12734,-15.02909 21.15622,-19.04429 21.15622,-28.04553 0,-5.62459 -1.78892,-9.53584 -6.23663,-13.63559 -5.92597,-5.46237 -13.96244,-7.95744 -25.55373,-7.93364 -12.30362,0.0253 -25.19822,3.58022 -39.62079,10.92319 -3.80734,1.93844 -7.03297,3.52443 -7.16807,3.52443 -0.1351,0 -0.24564,-4.41439 -0.24564,-9.80976 v -9.80977 l 5.41938,-2.50391 c 14.18992,-6.556148 29.05853,-9.695766 45.91723,-9.695766 17.30229,0 28.76381,2.992838 39.00514,10.185036 14.51641,10.19449 19.29961,28.52704 11.11176,42.58809 -2.82267,4.84741 -10.19944,12.22179 -21.18233,21.17548 -12.25049,9.9871 -17.76266,15.28514 -19.74496,18.97795 -1.39042,2.5902 -1.58076,4.27261 -1.82034,16.09039 l -0.26755,13.19774 h -12.6851 -12.6851 z"
     id="path3763"
     inkscape:connector-curvature="0"
     transform="matrix(0.75008342,0,0,0.75008342,-85.02848,0)" />
  <path
     style="fill:#de8787;stroke-width:0.72316384"
     d="m 327.18817,207.45796 c 0,-10.80471 1.05598,-19.15959 2.97297,-23.52219 2.61075,-5.94142 7.09553,-10.78286 19.99901,-21.58945 19.43899,-16.28003 22.61029,-20.40719 22.57147,-29.37459 -0.0411,-9.49954 -7.31195,-16.94064 -19.586,-20.04471 -5.16517,-1.30625 -7.36456,-1.47298 -14.74841,-1.11801 -12.60393,0.60593 -22.01606,3.34041 -36.61602,10.638 -3.96427,1.98148 -7.35419,3.60269 -7.53316,3.60269 -0.17897,0 -0.32539,-4.41439 -0.32539,-9.80976 v -9.80977 l 5.41938,-2.50391 c 14.29497,-6.604684 29.05675,-9.701112 46.1779,-9.686266 11.76417,0.0102 20.20836,1.305041 28.17034,4.319668 5.4942,2.080258 14.23988,7.970218 17.51438,11.795438 6.19582,7.23783 9.32712,18.05234 7.72359,26.67483 -1.90021,10.21788 -6.8682,16.34971 -26.56823,32.79229 -6.77582,5.65544 -13.40637,11.52027 -14.73453,13.03296 -4.24392,4.83357 -4.67381,6.62343 -4.98467,20.75384 l -0.28238,12.83616 H 339.7733 327.18817 Z"
     id="path3765"
     inkscape:connector-curvature="0"
     transform="matrix(0.75008342,0,0,0.75008342,-85.02848,0)" />
  <path
     style="fill:#d40000;stroke-width:0.72316384"
     d="m 326.46501,246.81806 v -13.74011 h 13.37853 13.37853 v 13.74011 13.74012 h -13.37853 -13.37853 z"
     id="path3767"
     inkscape:connector-curvature="0"
     transform="matrix(0.75008342,0,0,0.75008342,-85.02848,0)" />
  <path
     style="fill:#d40000;stroke-width:0.51135403"
     d="m 327.47617,205.6866 c 0.67522,-23.39156 1.85628,-25.43536 26.95576,-46.64629 8.39812,-7.09705 14.96029,-13.96641 16.67194,-17.45242 1.33409,-2.71705 1.48113,-3.52415 1.48113,-8.13005 0,-4.5455 -0.15649,-5.43218 -1.40868,-7.98197 -1.54972,-3.15563 -5.50363,-7.19754 -9.07408,-9.27604 -6.41076,-3.73197 -14.54332,-5.18932 -24.8486,-4.45285 -12.45191,0.88988 -22.13268,3.78363 -36.19587,10.81958 -3.57779,1.79001 -6.26214,2.85061 -6.53193,2.58082 -0.25191,-0.25192 -0.39502,-4.56215 -0.31802,-9.5783 l 0.14,-9.12028 5.36922,-2.41649 c 15.00781,-6.75449 27.45295,-9.308354 45.51051,-9.339202 19.09805,-0.03262 28.89157,2.642509 40.26563,10.998702 8.20967,6.03141 12.77706,14.48202 13.30547,24.61789 0.30524,5.85485 -0.32868,9.38775 -2.51559,14.01966 -3.07307,6.50883 -8.11297,11.73714 -25.99916,26.97108 -11.22862,9.56358 -14.60778,12.91778 -15.85541,15.73825 -1.35942,3.0732 -2.03282,9.74245 -2.03779,20.18197 l -0.004,8.82086 h -12.60462 -12.60462 z"
     id="path3769"
     inkscape:connector-curvature="0"
     transform="matrix(0.75008342,0,0,0.75008342,-85.02848,0)" />
  <path
     style="fill:#d40000;stroke-width:0.51135403"
     d="m 326.81881,246.97844 v -13.55088 h 13.03953 13.03952 v 13.55088 13.55088 h -13.03952 -13.03953 z"
     id="path3771"
     inkscape:connector-curvature="0"
     transform="matrix(0.75008342,0,0,0.75008342,-85.02848,0)" />
</svg>
