<svg height="503pt" viewBox="-1 0 503 503.73246" width="503pt" xmlns="http://www.w3.org/2000/svg"><path d="m158.914062 44.90625c.609376-2.332031.917969-4.726562.925782-7.136719 0-16.222656-13.152344-29.375-29.378906-29.375-16.222657 0-29.375 13.152344-29.375 29.375.003906 2.410157.316406 4.804688.921874 7.136719" fill="#607d8b"/><path d="m111.828125 411.277344h119.355469c11.179687.0625 20.40625-8.722656 20.898437-19.890625l.085938-25.179688-47.507813 3.105469h-174.917968c-9.972657 0-18.566407 7.015625-20.5625 16.785156-1.996094 9.769532 3.160156 19.59375 12.335937 23.503906zm0 0" fill="#802f34"/><path d="m128.027344 42.050781c-25.515625 1.761719-45.828125 31.140625-45.828125 67.0625h-48.261719c0-36.511719 41.882812-66.222656 94.089844-67.0625zm0 0" fill="#c52828"/><path d="m226.984375 109.113281h-48.261719c0-35.921875-20.226562-65.300781-45.742187-67.0625 52.121093.839844 94.003906 30.550781 94.003906 67.0625zm0 0" fill="#c52828"/><path d="m178.722656 109.113281h-96.523437c0-35.921875 20.3125-65.300781 45.828125-67.0625.808594-.070312 1.621094-.097656 2.433594-.082031.839843 0 1.679687 0 2.519531.082031 25.515625 1.761719 45.742187 31.140625 45.742187 67.0625zm0 0" fill="#f44335"/><path d="m226.984375 151.082031v171.308594l-148.226563 46.921875h-44.820312v-218.230469zm0 0" fill="#c52828"/><path d="m201.804688 151.082031v171.308594l-148.226563 46.921875h-19.640625v-218.230469zm0 0" fill="#f44335"/><path d="m193.414062 247.605469c0 34.769531-28.1875 62.953125-62.953124 62.953125-34.765626 0-62.949219-28.183594-62.949219-62.953125 0-34.765625 28.183593-62.949219 62.949219-62.949219 34.765624 0 62.953124 28.183594 62.953124 62.949219zm0 0" fill="#ad1457"/><path d="m168.230469 247.605469c0-34.765625-22.546875-62.949219-50.359375-62.949219s-50.359375 28.183594-50.359375 62.949219c0 34.769531 22.546875 62.953125 50.359375 62.953125s50.359375-28.183594 50.359375-62.953125zm0 0" fill="#e91e63"/><path d="m159.839844 247.605469c0 16.226562-13.152344 29.378906-29.378906 29.378906-16.222657 0-29.375-13.152344-29.375-29.378906 0-16.222657 13.152343-29.375 29.375-29.375 16.226562 0 29.378906 13.152343 29.378906 29.375zm0 0" fill="#37474f"/><path d="m134.660156 247.605469c0-16.222657-7.515625-29.375-16.789062-29.375-9.269532 0-16.785156 13.152343-16.785156 29.375 0 16.226562 7.515624 29.378906 16.785156 29.378906 9.273437 0 16.789062-13.152344 16.789062-29.378906zm0 0" fill="#607d8b"/><path d="m226.984375 184.65625h16.789063c9.269531 0 16.785156 7.515625 16.785156 16.785156v75.542969c0 9.269531-7.515625 16.785156-16.785156 16.785156h-16.789063zm0 0" fill="#802f34"/><path d="m260.558594 201.441406h16.789062c9.269532 0 16.785156 7.515625 16.785156 16.789063v41.964843c0 9.273438-7.515624 16.789063-16.785156 16.789063h-16.789062zm0 0" fill="#c03a2b"/><path d="m451.78125 402.414062 6.453125 35.722657-105.566406 28.304687-9.683594-53.59375zm0 0" fill="#cfd8dc"/><path d="m341.242188 403.25 13.15625 72.800781c.824218 4.5625-2.207032 8.925781-6.765626 9.75l-19.214843 3.472657c-4.558594.824218-8.925781-2.203126-9.75-6.765626l-13.15625-72.800781c-.824219-4.5625 2.203125-8.929687 6.765625-9.753906l19.210937-3.472656c4.5625-.824219 8.929688 2.207031 9.753907 6.769531zm0 0" fill="#37474f"/><g fill="#607d8b"><path d="m308.742188 427.566406 6.699218 37.070313c.824219 4.558593-2.207031 8.925781-6.769531 9.75l-19.210937 3.472656c-4.5625.824219-8.925782-2.203125-9.75-6.765625l-6.699219-37.070312c-.824219-4.5625 2.203125-8.929688 6.765625-9.753907l19.210937-3.46875c4.5625-.824219 8.929688 2.203125 9.753907 6.765625zm0 0"/><path d="m487.375 395.28125 6.699219 37.070312c.824219 4.5625-2.203125 8.929688-6.765625 9.753907l-19.210938 3.472656c-4.5625.824219-8.929687-2.207031-9.753906-6.769531l-6.699219-37.066406c-.824219-4.5625 2.207031-8.929688 6.765625-9.753907l19.214844-3.472656c4.5625-.824219 8.925781 2.207031 9.75 6.765625zm0 0"/><path d="m272.730469 432.347656c-27.78125 5.707032-55.648438 11.664063-83.765625 15.695313-31.558594 4.53125-65.804688 8.476562-97.28125 1.511719-3.96875-.625-7.738282-2.179688-10.996094-4.535157-3.292969-2.464843-4.753906-6.683593-3.691406-10.660156 1-2.234375 2.597656-4.148437 4.617187-5.539063 10.925781-8.585937 23.058594-15.511718 36.007813-20.5625 23.097656-9.78125 46.785156-18.105468 70.921875-24.929687 21.070312-6.210937 42.304687-12.003906 63.625-17.121094 21.148437-5.039062 42.46875-9.402343 63.957031-12.84375 42.21875-6.882812 97.785156-11.414062 137.484375-28.203125 19.402344-8.6875 32.484375-27.3125 34.078125-48.511718 1.816406-15.03125-3.863281-29.996094-15.191406-40.039063-22.914063-17.875-54.390625-17.707031-82.003906-18.464844-32.148438-.921875-64.210938.085938-96.359376.085938v41.964843h92.160157c4.953125 0 9.90625.085938 14.773437.085938 5.859375-.605469 11.78125.171875 17.289063 2.265625 5.875 2.855469 11.667969 10.828125 8.058593 17.542969-3.609374 6.714844-15.191406 7.722656-21.90625 8.894531-76.800781 13.179687-145.121093 23.671875-216.132812 42.640625-9.902344 2.6875-19.722656 5.625-29.542969 8.644531-.421875.085938-.757812.253907-1.175781.335938-15.023438 4.53125-29.796875 9.484375-44.484375 14.941406-4.785156 1.761719-9.570313 3.523437-14.351563 5.371094-6.800781 2.601562-13.515624 5.371093-20.0625 8.394531-11.691406 5.128906-22.804687 11.488281-33.152343 18.96875-6.199219 4.46875-12.117188 9.316406-17.710938 14.519531-2.257812 2.140625-4.386719 4.410157-6.378906 6.800781-7.480469 7.9375-11.964844 18.238282-12.675781 29.125-1.007813 38.691407 43.5625 52.207032 74.28125 55.058594 22.535156 1.890625 45.179687 2.058594 67.738281.503906 18.800781-1.175781 37.515625-3.1875 55.984375-5.707031 20.8125-2.851562 41.378906-6.460937 61.859375-10.996093 1.425781-.335938 5.789063-1.511719 11.664063-3.105469zm0 0"/></g><path d="m29.742188 109.113281h201.441406c11.589844 0 20.984375 9.394531 20.984375 20.984375s-9.394531 20.984375-20.984375 20.984375h-201.441406c-11.589844 0-20.984376-9.394531-20.984376-20.984375s9.394532-20.984375 20.984376-20.984375zm0 0" fill="#802f34"/><path d="m8.949219 369.503906c-5.605469 5.605469-8.703125 13.246094-8.578125 21.171875.121094 7.925781 3.449218 15.464844 9.226562 20.898438-5.523437 7.9375-8.695312 17.273437-9.152344 26.933593-1.0625 41.210938 41.609376 59.894532 81.929688 63.636719 11.75 1.058594 23.921875 1.589844 36.597656 1.589844 10.398438 0 21.160156-.355469 32.414063-1.066406 17.726562-1.109375 36.242187-2.996094 56.597656-5.769531 21.738281-2.976563 42.191406-6.613282 62.648437-11.144532 1.132813-.269531 4.105469-1.058594 8.183594-2.15625 2.703125 1.804688 5.878906 2.78125 9.132813 2.800782 1.011719 0 2.023437-.09375 3.019531-.277344l19.203125-3.464844.246094 1.34375c.777343 4.386719 3.273437 8.285156 6.9375 10.824219 3.660156 2.539062 8.183593 3.515625 12.566406 2.707031l19.207031-3.476562c9.121094-1.648438 15.183594-10.375 13.539063-19.496094l-.371094-2.007813 91.429687-24.515625c3.179688 3.835938 7.898438 6.0625 12.882813 6.074219 1.003906 0 2.003906-.09375 2.988281-.277344l19.214844-3.464843c9.121094-1.652344 15.179688-10.382813 13.527344-19.507813l-6.714844-37.0625c-.78125-4.386719-3.273438-8.28125-6.929688-10.828125-3.65625-2.542969-8.171874-3.53125-12.558593-2.746094l-19.203125 3.476563c-4.386719.777343-8.28125 3.273437-10.8125 6.941406-.835938 1.25-1.503906 2.609375-1.980469 4.035156l-94.273437 9.046875-.363282-2.003906c-1.648437-9.121094-10.382812-15.179688-19.503906-13.53125l-19.207031 3.476562c-9.117188 1.648438-15.171875 10.378907-13.527344 19.496094l.234375 1.34375-19.214844 3.476563c-5.207031.957031-9.65625 4.328125-11.984375 9.089843l-4.011719.839844c-24.390624 5.035156-49.605468 10.238282-74.515624 13.804688-31.191407 4.472656-64.152344 8.292968-94.34375 1.613281-2.664063-.390625-5.207032-1.363281-7.453126-2.847656-.394531-.375-.773437-.773438-1.125-1.191407.589844-.8125 1.324219-1.511718 2.164063-2.0625 7.832031-6.269531 16.4375-11.496093 25.609375-15.554687h118.558594c15.800781.058594 28.785156-12.464844 29.292968-28.261719l.082032-18.515625c19.808594-4.574219 38.535156-8.300781 56.941406-11.246093 9.484375-1.542969 19.648438-2.972657 30.160156-4.449219 36.324219-5.101563 77.503906-10.910157 109.257813-24.339844 22.4375-9.960937 37.523437-31.523437 39.1875-56.019531.578125-21.460938-5.449219-36.804688-18.464844-46.882813-23.878906-18.625-55.046875-19.425781-82.542969-20.144531l-4.378906-.109375c-21.296875-.621094-42.808594-.386719-63.664062-.160156-8.699219.09375-17.398438.15625-26.105469.183593-3.578125-9.96875-13.011719-16.636718-23.601563-16.675781h-9.9375c-3.546875-10.027343-13.003906-16.746093-23.636718-16.789062h-8.394532v-17.214844c14.550782-2.039063 25.324219-14.5625 25.167969-29.25-.15625-14.691406-11.191406-26.984375-25.78125-28.714844-4.195313-28.539062-30.660156-52.367187-66.59375-62.378906 0-.3125.058594-.621094.058594-.933594 0-20.859375-16.910157-37.769531-37.769531-37.769531-20.859376 0-37.769532 16.910156-37.769532 37.769531 0 .3125.050782.621094.058594.933594-35.925781 9.980469-62.378906 33.816406-66.59375 62.378906-14.589844 1.730469-25.625 14.023438-25.777344 28.714844-.15625 14.6875 10.617188 27.210937 25.164063 29.25v202.28125c-6.273438.84375-12.101563 3.714844-16.59375 8.175781zm470.175781 27.269532 6.714844 37.074218-19.222656 3.449219-.117188-.660156-2.820312-15.597657-3.757813-20.789062zm-34.238281 14.730468 3.710937 20.53125-89.289062 23.9375-6.421875-35.636718zm-424.070313-30.132812c2.367188-2.363282 5.578125-3.683594 8.925782-3.667969h16.382812c-1.863281 1.261719-3.734375 2.519531-5.515625 3.828125-6.488281 4.691406-12.679687 9.773438-18.539063 15.226562-.621093.597657-1.132812 1.148438-1.679687 1.730469-4.445313-4.910156-4.242187-12.453125.460937-17.117187zm21.515625-221.894532h176.261719v155.957032c-10.785156 2.519531-21.582031 5.195312-32.417969 8.089844-9.902343 2.6875-19.722656 5.625-29.542969 8.636718-.394531.101563-.839843.238282-1.402343.414063-15.234375 4.589843-30.367188 9.675781-45.207031 15.183593-4.742188 1.753907-9.484376 3.5-14.203126 5.320313-6.890624 2.636719-13.035156 5.222656-18.816406 7.839844h-34.671875zm225.078125 125.902344h9.9375c10.632813-.046875 20.089844-6.765625 23.636719-16.789062l100.082031.074218h2.164063c3.878906-.375 7.792969.117188 11.457031 1.4375 1.953125 1.015626 3.476562 2.699219 4.296875 4.742188.269531.839844.109375 1.132812.050781 1.25-1.257812 2.308594-9.582031 3.617188-13.144531 4.195312l-33.394531 5.660157c-46.960938 7.957031-92.019532 15.609375-137.117188 25.640625v-9.425782h8.394532c10.632812-.042968 20.089843-6.761718 23.636718-16.785156zm65.578125 119.359375 6.578125 36.402344 4.84375 26.792969 1.761719 9.652344-19.210937 3.476562-6.582032-36.402344-3.355468-18.535156-3.230469-17.851562zm-32.5 24.34375 3.355469 18.539063 3.359375 18.542968-19.203125 3.472657-6.714844-37.070313zm-60.382812-29.839843c-2.367188 2.355468-5.582031 3.667968-8.921875 3.644531h-76.472656c11.027343-3.835938 22.957031-7.632813 36.207031-11.507813 18.683593-5.507812 36.09375-10.242187 52.820312-14.4375v14.050782c-.140625 3.097656-1.4375 6.035156-3.632812 8.226562zm87.148437-172.855469c20.664063-.226563 42.019532-.460938 63.011719.152343l4.421875.082032c26.121094.671875 53.128906 1.351562 72.652344 16.585937 8.597656 6.714844 12.390625 17.226563 11.960937 33.171875-1.449219 17.9375-12.546875 33.660156-28.964843 41.027344-29.714844 12.589844-69.734376 18.1875-105.035157 23.148438-10.636719 1.488281-20.925781 2.9375-30.503906 4.5-20.804687 3.355468-41.964844 7.554687-64.628906 12.96875-20.253907 4.859374-41.203125 10.5-64.023438 17.222656-24.464843 6.902344-48.464843 15.34375-71.867187 25.273437-13.601563 5.339844-26.351563 12.640625-37.84375 21.671875-3.273438 2.363282-5.820313 5.601563-7.34375 9.339844-2.34375 7.34375.183594 15.363281 6.3125 20.035156 4.265625 3.179688 9.222656 5.308594 14.46875 6.210938 13.078125 2.777344 26.417968 4.121094 39.785156 4.003906 20.269531-.367188 40.484375-2.175781 60.5-5.40625 25.421875-3.640625 50.890625-8.894531 75.539062-13.980469l.3125-.058593 4.714844 26.085937c-1.851562.496094-3.195312.839844-3.816406.988281-19.894531 4.40625-39.902344 7.96875-61.179688 10.914063-19.945312 2.71875-38.058593 4.566406-55.398437 5.648437-22.125 1.539063-44.332031 1.378906-66.433594-.488281-15.878906-1.527344-67.632812-9.242187-66.667969-46.507813.664063-9.027343 4.476563-17.539062 10.769532-24.046874 1.78125-2.125 3.679687-4.148438 5.6875-6.058594 5.351562-4.957032 11-9.578125 16.914062-13.84375 9.878906-7.152344 20.5-13.21875 31.675782-18.09375 5.960937-2.746094 12.347656-5.421875 19.566406-8.183594 4.667968-1.804688 9.332031-3.519531 14.269531-5.339844 14.269531-5.296875 29.082031-10.273437 43.257813-14.578125.378906-.0625.746093-.171875 1.09375-.328125.28125-.054687.5625-.125.839843-.210937 9.726563-2.996094 19.460938-5.875 29.242188-8.558594 12.117187-3.242187 24.1875-6.179687 36.265625-8.980469h.175781c1.285156-.019531 2.550781-.34375 3.6875-.941406 47.515625-10.863281 94.980469-18.9375 144.625-27.339844l33.199219-5.628906c7.996094-1.25 20.074218-3.148438 25.3125-12.777344 2.34375-4.4375 2.757812-9.640625 1.148437-14.394531-2.207031-6.390625-6.839843-11.65625-12.898437-14.664063-5.976563-2.558593-12.484375-3.632812-18.96875-3.136718l-100.5625-.066406v-25.242188c8.242187-.039062 16.484375-.097656 24.726562-.175781zm-41.511718-8.15625v41.964843c0 4.636719-3.757813 8.394532-8.394532 8.394532h-8.394531v-58.753906h8.394531c4.636719 0 8.394532 3.757812 8.394532 8.394531zm-41.96875-25.179688c4.636718 0 8.394531 3.757813 8.394531 8.390625v75.542969c0 4.636719-3.757813 8.394531-8.394531 8.394531h-8.394532v-92.328125zm-26.1875-92.328125h-30.835938c-1.117188-15.625-6.386719-30.664062-15.269531-43.5625 24.449219 8.601563 42.015625 24.632813 46.105469 43.5625zm-87.125-50.363281c20.042968 0 36.636718 21.933594 39.449218 50.363281h-78.898437c2.8125-28.429687 19.40625-50.363281 39.449219-50.363281zm0-33.574219c10.507812.054688 19.355468 7.863282 20.707031 18.28125-13.730469-1.992187-27.679688-1.992187-41.414063 0 1.355469-10.417968 10.203125-18.226562 20.707032-18.28125zm-41.019532 40.375c-8.882812 12.898438-14.152344 27.9375-15.265625 43.5625h-30.839843c4.089843-18.929687 21.65625-34.960937 46.105468-43.5625zm-72.292968 72.9375c0-6.953125 5.636718-12.589844 12.59375-12.589844h201.441406c6.953125 0 12.589844 5.636719 12.589844 12.589844s-5.636719 12.589844-12.589844 12.589844h-201.441406c-6.957032 0-12.59375-5.636719-12.59375-12.589844zm0 0"/><path d="m130.460938 318.949219c39.402343 0 71.34375-31.941407 71.34375-71.34375 0-39.402344-31.941407-71.34375-71.34375-71.34375-39.402344 0-71.34375 31.941406-71.34375 71.34375.046874 39.382812 31.960937 71.300781 71.34375 71.34375zm0-125.898438c30.132812 0 54.558593 24.425781 54.558593 54.554688 0 30.132812-24.425781 54.558593-54.558593 54.558593-30.128907 0-54.558594-24.425781-54.558594-54.558593.039062-30.113281 24.445312-54.519531 54.558594-54.554688zm0 0"/><path d="m130.460938 285.378906c20.859374 0 37.769531-16.914062 37.769531-37.773437s-16.910157-37.769531-37.769531-37.769531c-20.859376 0-37.769532 16.910156-37.769532 37.769531.023438 20.851562 16.917969 37.75 37.769532 37.773437zm0-58.757812c11.589843 0 20.984374 9.398437 20.984374 20.984375 0 11.589843-9.394531 20.984375-20.984374 20.984375-11.589844 0-20.984376-9.394532-20.984376-20.984375 0-11.585938 9.394532-20.984375 20.984376-20.984375zm0 0"/></svg>