<svg height="512pt" viewBox="-26 0 512 512.00194" width="512pt" xmlns="http://www.w3.org/2000/svg"><path d="m396.808594 179.214844h-2.230469c14.71875-37.445313 3.890625-80.105469-26.898437-106.003906-30.789063-25.898438-74.675782-29.253907-109.042969-8.339844-28.21875-50.164063-90.140625-70.382813-142.523438-46.53125-52.382812 23.851562-77.792969 83.832031-58.480469 138.054687-32.589843 9.53125-53.21875 41.574219-48.398437 75.1875s33.617187 58.574219 67.574219 58.5625h320c30.632812 0 55.46875-24.832031 55.46875-55.464843 0-30.632813-24.835938-55.464844-55.46875-55.464844zm0 0" fill="#607d8b"/><path d="m452.277344 234.679688c0 14.710937-5.84375 28.820312-16.246094 39.222656-10.402344 10.398437-24.511719 16.242187-39.222656 16.242187h-25.597656c26.050781.007813 48.59375-18.121093 54.175781-43.566406s-7.304688-51.347656-30.964844-62.246094c-7.265625-3.398437-15.191406-5.144531-23.210937-5.117187h-2.21875c10.515624-26.773438 8.148437-56.894532-6.425782-81.695313-14.574218-24.800781-39.734375-41.527343-68.242187-45.367187 4.269531-.617188 8.574219-.929688 12.886719-.9375 31.019531-.042969 60.054687 15.265625 77.546874 40.886718 17.488282 25.621094 21.171876 58.234376 9.832032 87.113282h2.21875c14.710937 0 28.820312 5.84375 39.222656 16.242187 10.402344 10.402344 16.246094 24.511719 16.246094 39.222657zm0 0" fill="#37474f"/><path d="m252.851562 55.820312c-6.9375 2.207032-13.585937 5.246094-19.796874 9.046876-17.402344-30.851563-48.523438-51.503907-83.710938-55.554688 4.246094-.515625 8.519531-.769531 12.800781-.765625 36.144531-.019531 70.019531 17.632813 90.707031 47.273437zm0 0" fill="#37474f"/><path d="m221.875 102.414062c0 9.425782-7.640625 17.066407-17.066406 17.066407-9.425782 0-17.066406-7.640625-17.066406-17.066407 0-9.425781 7.640624-17.066406 17.066406-17.066406 9.425781 0 17.066406 7.640625 17.066406 17.066406zm0 0" fill="#02a9f4"/><path d="m196.277344 153.613281c0 18.851563-15.28125 34.132813-34.132813 34.132813-18.851562 0-34.136719-15.28125-34.136719-34.132813zm0 0" fill="#f5f5f5"/><g fill="#02a9f4"><path d="m136.542969 102.414062c0 9.425782-7.640625 17.066407-17.066407 17.066407-9.425781 0-17.066406-7.640625-17.066406-17.066407 0-9.425781 7.640625-17.066406 17.066406-17.066406 9.425782 0 17.066407 7.640625 17.066407 17.066406zm0 0"/><path d="m180.191406 353.984375c7.707032 11.847656 4.359375 27.699219-7.476562 35.425781-6.246094 4.082032-13.972656 5.203125-21.121094 3.066406-5.902344-1.640624-10.992188-5.390624-14.300781-10.542968-5.355469-8.222656-8.101563-35.257813-9.261719-50.796875-.191406-2.222657.808594-4.378907 2.628906-5.667969 1.820313-1.292969 4.183594-1.523438 6.21875-.605469.183594.023438.359375.082031.519532.167969 13.816406 7.296875 37.4375 20.730469 42.792968 28.953125zm0 0"/><path d="m291.125 353.984375c7.707031 11.847656 4.359375 27.699219-7.476562 35.425781-6.246094 4.082032-13.972657 5.203125-21.121094 3.066406-5.902344-1.640624-10.992188-5.390624-14.300782-10.542968-5.355468-8.222656-8.101562-35.257813-9.261718-50.796875-.191406-2.222657.808594-4.378907 2.628906-5.667969 1.820312-1.292969 4.183594-1.523438 6.21875-.605469.183594.023438.359375.082031.519531.167969 13.816407 7.296875 37.4375 20.730469 42.792969 28.953125zm0 0"/></g><path d="m402.058594 353.984375c7.707031 11.847656 4.359375 27.699219-7.476563 35.425781-6.246093 4.082032-13.972656 5.203125-21.121093 3.066406-5.902344-1.640624-10.992188-5.390624-14.300782-10.542968-5.359375-8.222656-8.101562-35.257813-9.261718-50.796875-.191407-2.222657.808593-4.378907 2.628906-5.667969 1.820312-1.292969 4.183594-1.523438 6.21875-.605469.183594.023438.359375.082031.519531.167969 13.816406 7.296875 37.4375 20.730469 42.792969 28.953125zm0 0" fill="#0377bc"/><path d="m383.925781 363.867188c2.582031 5.335937 2.832031 11.507812.6875 17.035156-2.144531 5.53125-6.488281 9.921875-11.992187 12.121094-5.558594-2.160157-10.273438-6.050782-13.457032-11.089844-5.355468-8.222656-9.792968-34.15625-11.96875-49.03125-.5-1.949219.242188-4.003906 1.871094-5.179688 1.632813-1.171875 3.816406-1.226562 5.503906-.136718 10.941407 11.300781 26.367188 28.039062 29.355469 36.28125zm0 0" fill="#02a9f4"/><path d="m262.960938 463.925781c7.707031 11.851563 4.359374 27.699219-7.476563 35.425781-6.246094 4.082032-13.972656 5.203126-21.121094 3.066407-5.902343-1.640625-10.992187-5.390625-14.304687-10.542969-5.355469-8.222656-8.097656-35.257812-9.257813-50.796875-.191406-2.222656.808594-4.378906 2.628907-5.667969 1.820312-1.289062 4.183593-1.519531 6.21875-.605468.183593.023437.359374.082031.519531.171874 13.816406 7.292969 37.4375 20.726563 42.792969 28.949219zm0 0" fill="#02a9f4"/><path d="m365.359375 463.925781c7.707031 11.851563 4.359375 27.699219-7.476563 35.425781-6.246093 4.082032-13.972656 5.203126-21.121093 3.066407-5.898438-1.640625-10.992188-5.390625-14.300781-10.542969-5.355469-8.222656-8.097657-35.257812-9.261719-50.796875-.1875-2.222656.8125-4.378906 2.628906-5.667969 1.820313-1.289062 4.1875-1.519531 6.21875-.605468.183594.023437.359375.082031.519531.171874 13.816406 7.292969 37.4375 20.726563 42.792969 28.949219zm0 0" fill="#0377bc"/><path d="m348.546875 472.945312c2.449219 5.59375 2.511719 11.945313.171875 17.582032-2.34375 5.640625-6.882812 10.078125-12.574219 12.292968-5.652343-2.023437-10.46875-5.875-13.683593-10.945312-5.355469-8.222656-9.339844-34.449219-11.246094-49.503906-.414063-2.023438.398437-4.101563 2.074218-5.304688 1.679688-1.203125 3.910157-1.308594 5.691407-.265625 11.082031 11.21875 26.671875 27.84375 29.566406 36.144531zm0 0" fill="#02a9f4"/><path d="m396.808594 298.679688h-320c-36.554688.011718-68.050782-25.753907-75.28125-61.585938-7.234375-35.835938 11.800781-71.800781 45.5-85.96875-2.878906-10.300781-4.339844-20.949219-4.351563-31.644531-.023437-52.699219 34.496094-99.179688 84.949219-114.390625 50.457031-15.207032 104.914062 4.453125 134.015625 48.386718 35.988281-17.992187 79.183594-13.207031 110.359375 12.230469 31.175781 25.433594 44.535156 66.789063 34.136719 105.65625 33.171875 4.882813 56.953125 34.546875 54.503906 67.992188-2.449219 33.441406-30.296875 59.324219-63.832031 59.324219zm-234.664063-281.601563c-33.257812-.082031-64.472656 16.027344-83.667969 43.1875-19.199218 27.15625-23.972656 61.957031-12.796874 93.28125.78125 2.210937.617187 4.644531-.449219 6.734375-1.070313 2.085938-2.949219 3.644531-5.199219 4.300781-28.519531 8.34375-46.566406 36.378907-42.347656 65.789063 4.214844 29.414062 29.414062 51.25 59.125 51.242187h320c25.921875 0 46.933594-21.011719 46.933594-46.933593 0-25.921876-21.011719-46.933594-46.933594-46.933594h-2.226563c-2.820312 0-5.457031-1.394532-7.046875-3.722656-1.589844-2.328126-1.929687-5.292969-.902344-7.917969 13.382813-34.039063 3.546876-72.820313-24.441406-96.363281-27.992187-23.542969-67.886718-26.589844-99.128906-7.574219-1.976562 1.183593-4.34375 1.53125-6.578125.964843-2.230469-.582031-4.132813-2.042968-5.269531-4.050781-18.195313-32.074219-52.195313-51.925781-89.070313-52.003906zm0 0"/><path d="m119.476562 128.011719c-14.140624 0-25.601562-11.460938-25.601562-25.597657 0-14.140624 11.460938-25.601562 25.601562-25.601562 14.136719 0 25.601563 11.460938 25.601563 25.601562-.015625 14.132813-11.46875 25.582032-25.601563 25.597657zm0-34.132813c-4.714843 0-8.535156 3.820313-8.535156 8.535156 0 4.710938 3.820313 8.53125 8.535156 8.53125 4.710938 0 8.53125-3.820312 8.53125-8.53125-.003906-4.710937-3.820312-8.527343-8.53125-8.535156zm0 0"/><path d="m204.808594 128.011719c-14.136719 0-25.597656-11.460938-25.597656-25.597657 0-14.140624 11.460937-25.601562 25.597656-25.601562 14.140625 0 25.601562 11.460938 25.601562 25.601562-.015625 14.132813-11.46875 25.582032-25.601562 25.597657zm0-34.132813c-4.710938 0-8.53125 3.820313-8.53125 8.535156 0 4.710938 3.820312 8.53125 8.53125 8.53125 4.714844 0 8.535156-3.820312 8.535156-8.53125-.007812-4.710937-3.824219-8.527343-8.535156-8.535156zm0 0"/><path d="m162.144531 196.28125c-23.554687-.027344-42.640625-19.117188-42.667969-42.667969 0-4.714843 3.820313-8.535156 8.53125-8.535156h68.269532c4.710937 0 8.53125 3.820313 8.53125 8.535156-.027344 23.550781-19.113282 42.640625-42.664063 42.667969zm-24.140625-34.136719c3.617188 10.230469 13.289063 17.074219 24.140625 17.074219 10.847657 0 20.519531-6.84375 24.136719-17.074219zm0 0"/><path d="m136.542969 128.011719h-34.132813c-4.714844 0-8.535156-3.820313-8.535156-8.53125 0-4.714844 3.820312-8.535157 8.535156-8.535157h34.132813c4.710937 0 8.535156 3.820313 8.535156 8.535157 0 4.710937-3.824219 8.53125-8.535156 8.53125zm0 0"/><path d="m221.875 128.011719h-34.132812c-4.710938 0-8.53125-3.820313-8.53125-8.53125 0-4.714844 3.820312-8.535157 8.53125-8.535157h34.132812c4.714844 0 8.535156 3.820313 8.535156 8.535157 0 4.710937-3.820312 8.53125-8.535156 8.53125zm0 0"/><path d="m381.042969 401.945312c-11.4375.019532-22.128907-5.691406-28.464844-15.210937-1.855469-2.789063-7.5-11.273437-11.179687-54.769531-.464844-5.433594 2.066406-10.683594 6.605468-13.703125 4.535156-3.023438 10.359375-3.328125 15.191406-.804688 38.703126 20.171875 44.351563 28.667969 46.210938 31.453125 6.972656 10.464844 7.625 23.917969 1.695312 35.007813-5.933593 11.089843-17.480468 18.019531-30.058593 18.03125zm-14.257813-24.671874c3.351563 5.136718 9.203125 8.078124 15.324219 7.710937 6.125-.371094 11.578125-4 14.285156-9.507813 2.707031-5.503906 2.25-12.039062-1.195312-17.113281-2.238281-3.363281-13.128907-11.582031-36.449219-23.964843 2.425781 26.292968 5.804688 39.519531 8.039062 42.875zm0 0"/><path d="m343.894531 512c-11.441406.019531-22.128906-5.6875-28.46875-15.207031-1.855469-2.789063-7.5-11.273438-11.179687-54.777344-.460938-5.429687 2.070312-10.679687 6.605468-13.703125 4.539063-3.019531 10.359376-3.328125 15.191407-.800781 38.707031 20.167969 44.355469 28.664062 46.214843 31.453125 6.972657 10.464844 7.625 23.917968 1.691407 35.007812-5.929688 11.089844-17.480469 18.019532-30.054688 18.027344zm-14.261719-24.667969c3.378907 5.078125 9.210938 7.964844 15.292969 7.578125 6.085938-.386718 11.503907-3.992187 14.210938-9.457031s2.292969-11.957031-1.085938-17.03125c-2.238281-3.363281-13.128906-11.582031-36.449219-23.96875 2.425782 26.300781 5.800782 39.527344 8.035157 42.878906zm0 0"/><path d="m241.492188 512c-11.4375.019531-22.125-5.6875-28.464844-15.207031-1.855469-2.789063-7.5-11.273438-11.179688-54.777344-.464844-5.429687 2.066406-10.679687 6.605469-13.703125 4.539063-3.019531 10.359375-3.328125 15.191406-.800781 38.703125 20.167969 44.355469 28.664062 46.210938 31.453125 6.976562 10.464844 7.625 23.917968 1.695312 35.007812-5.929687 11.089844-17.480469 18.019532-30.058593 18.027344zm-14.257813-24.667969c3.378906 5.078125 9.207031 7.964844 15.292969 7.578125 6.085937-.386718 11.5-3.992187 14.207031-9.457031s2.292969-11.957031-1.085937-17.03125c-2.234376-3.363281-13.128907-11.582031-36.449219-23.96875 2.425781 26.300781 5.804687 39.527344 8.039062 42.878906zm0 0"/><path d="m270.109375 401.945312c-11.4375.019532-22.125-5.691406-28.464844-15.210937-1.855469-2.789063-7.5-11.273437-11.179687-54.769531-.464844-5.433594 2.066406-10.683594 6.601562-13.703125s10.359375-3.332031 15.1875-.808594c38.707032 20.171875 44.355469 28.667969 46.214844 31.453125 6.972656 10.464844 7.621094 23.917969 1.691406 35.007812-5.929687 11.089844-17.480468 18.019532-30.054687 18.03125zm-14.257813-24.671874c3.351563 5.136718 9.203126 8.078124 15.324219 7.710937 6.125-.371094 11.578125-4 14.285157-9.507813 2.707031-5.503906 2.25-12.039062-1.195313-17.113281-2.234375-3.363281-13.128906-11.582031-36.449219-23.964843 2.425782 26.292968 5.804688 39.519531 8.039063 42.875zm0 0"/><path d="m159.175781 401.945312c-11.4375.019532-22.125-5.691406-28.464843-15.210937-1.855469-2.789063-7.5-11.273437-11.179688-54.769531-.464844-5.433594 2.066406-10.683594 6.605469-13.703125 4.535156-3.023438 10.359375-3.328125 15.191406-.804688 38.703125 20.171875 44.351563 28.667969 46.210937 31.453125 6.972657 10.464844 7.625 23.917969 1.695313 35.007813-5.933594 11.089843-17.480469 18.019531-30.058594 18.03125zm-14.257812-24.671874c3.351562 5.136718 9.203125 8.078124 15.324219 7.710937 6.125-.371094 11.578124-4 14.285156-9.507813 2.707031-5.503906 2.25-12.039062-1.195313-17.113281-2.234375-3.363281-13.128906-11.582031-36.449219-23.964843 2.425782 26.292968 5.804688 39.519531 8.039063 42.875zm0 0"/></svg>