<?xml version="1.0" encoding="iso-8859-1"?>
<!-- Generator: Adobe Illustrator 19.0.0, SVG Export Plug-In . SVG Version: 6.00 Build 0)  -->
<svg version="1.1" id="Layer_1" xmlns="http://www.w3.org/2000/svg" xmlns:xlink="http://www.w3.org/1999/xlink" x="0px" y="0px"
	 viewBox="0 0 499.2 499.2" style="enable-background:new 0 0 499.2 499.2;" xml:space="preserve">
<path style="fill:#4C5254;" d="M345.6,463.2c0,20-16,36-36,36h-112c-20,0-36-16-36-36v-296c0-20,16-36,36-36h111.2c20,0,36,16,36,36
	v296H345.6z"/>
<path style="fill:#2F423F;" d="M161.6,167.2c0-20,13.6-36,33.6-36H304c26.4,0,41.6,16,41.6,36v295.2c0,20-16,36-36,36"/>
<path style="fill:#3AC2F2;" d="M249.6,0L249.6,0c-52,0-101.6,20-138.4,57.6L133.6,80c31.2-31.2,72-48,116-48s84.8,16.8,116,48
	L388,57.6C351.2,20,301.6,0,249.6,0z"/>
<path style="fill:#0AA06E;" d="M249.6,58.4c-35.2,0-68,13.6-92.8,38.4l22.4,22.4c19.2-18.4,44-28.8,70.4-28.8s51.2,10.4,70.4,28.8
	l22.4-22.4C317.6,72,284.8,58.4,249.6,58.4L249.6,58.4z"/>
<path style="fill:#009CC6;" d="M249.6,32c44,0,84.8,16.8,116,48L388,57.6C351.2,20,301.6,0,249.6,0l0,0"/>
<path style="fill:#3AC2F2;" d="M249.6,58.4c-35.2,0-68,13.6-92.8,38.4l22.4,22.4c19.2-18.4,44-28.8,70.4-28.8s51.2,10.4,70.4,28.8
	l22.4-22.4C317.6,72,284.8,58.4,249.6,58.4L249.6,58.4z"/>
<path style="fill:#009CC6;" d="M249.6,90.4c26.4,0,51.2,10.4,70.4,28.8l22.4-22.4c-24.8-24.8-57.6-38.4-92.8-38.4l0,0"/>
<path style="fill:#F15249;" d="M314.4,179.2c0,9.6-8,16-17.6,16h-27.2c-9.6,0-17.6-6.4-17.6-16l0,0c0-9.6,8-16,17.6-16h27.2
	C306.4,163.2,314.4,169.6,314.4,179.2L314.4,179.2z"/>
<path style="fill:#D82E2E;" d="M314.4,178.4L314.4,178.4c0,9.6-8,16.8-17.6,16.8h-27.2c-9.6,0-17.6-7.2-17.6-16.8l0,0"/>
<circle style="fill:#37CC85;" cx="197.6" cy="232.8" r="17.6"/>
<path style="fill:#0AA06E;" d="M209.6,220.8c7.2,7.2,7.2,17.6,0,24.8s-17.6,7.2-24.8,0"/>
<circle style="fill:#37CC85;" cx="249.6" cy="232.8" r="17.6"/>
<path style="fill:#0AA06E;" d="M261.6,220.8c7.2,7.2,7.2,17.6,0,24.8s-17.6,7.2-24.8,0"/>
<circle style="fill:#37CC85;" cx="301.6" cy="232.8" r="17.6"/>
<path style="fill:#0AA06E;" d="M313.6,220.8c7.2,7.2,7.2,17.6,0,24.8s-17.6,7.2-24.8,0"/>
<circle style="fill:#37CC85;" cx="197.6" cy="292.8" r="17.6"/>
<path style="fill:#0AA06E;" d="M209.6,280.8c7.2,7.2,7.2,17.6,0,24.8c-7.2,7.2-17.6,7.2-24.8,0"/>
<circle style="fill:#37CC85;" cx="249.6" cy="292.8" r="17.6"/>
<path style="fill:#0AA06E;" d="M261.6,280.8c7.2,7.2,7.2,17.6,0,24.8c-7.2,7.2-17.6,7.2-24.8,0"/>
<circle style="fill:#37CC85;" cx="301.6" cy="292.8" r="17.6"/>
<path style="fill:#0AA06E;" d="M313.6,280.8c7.2,7.2,7.2,17.6,0,24.8c-7.2,7.2-17.6,7.2-24.8,0"/>
<circle style="fill:#37CC85;" cx="197.6" cy="352.8" r="17.6"/>
<path style="fill:#0AA06E;" d="M209.6,340.8c7.2,7.2,7.2,17.6,0,24.8c-7.2,7.2-17.6,7.2-24.8,0"/>
<circle style="fill:#37CC85;" cx="249.6" cy="352.8" r="17.6"/>
<path style="fill:#0AA06E;" d="M261.6,340.8c7.2,7.2,7.2,17.6,0,24.8c-7.2,7.2-17.6,7.2-24.8,0"/>
<circle style="fill:#37CC85;" cx="301.6" cy="352.8" r="17.6"/>
<path style="fill:#0AA06E;" d="M313.6,340.8c7.2,7.2,7.2,17.6,0,24.8c-7.2,7.2-17.6,7.2-24.8,0"/>
<path style="fill:#3AC2F2;" d="M225.6,459.2c0,4-3.2,8-8,8h-24c-4,0-8-3.2-8-8v-64c0-4,3.2-8,8-8h24c4,0,8,3.2,8,8V459.2z"/>
<path style="fill:#009CC6;" d="M217.6,387.2c4,0,8,3.2,8,8v64c0,4-3.2,8-8,8h-24c-4,0-8-3.2-8-8"/>
<path style="fill:#3AC2F2;" d="M281.6,459.2c0,4-3.2,8-8,8h-24c-4,0-8-3.2-8-8v-64c0-4,3.2-8,8-8h24c4,0,8,3.2,8,8V459.2z"/>
<path style="fill:#009CC6;" d="M273.6,387.2c4,0,8,3.2,8,8v64c0,4-3.2,8-8,8h-24c-4,0-8-3.2-8-8"/>
<g>
	<path style="fill:#757B7C;" d="M313.6,399.2c0,2.4-1.6,4-4,4h-16c-2.4,0-4-1.6-4-4l0,0c0-2.4,1.6-4,4-4h16
		C312,395.2,313.6,396.8,313.6,399.2L313.6,399.2z"/>
	<path style="fill:#757B7C;" d="M313.6,423.2c0,2.4-1.6,4-4,4h-16c-2.4,0-4-1.6-4-4l0,0c0-2.4,1.6-4,4-4h16
		C312,419.2,313.6,420.8,313.6,423.2L313.6,423.2z"/>
	<path style="fill:#757B7C;" d="M313.6,447.2c0,2.4-1.6,4-4,4h-16c-2.4,0-4-1.6-4-4l0,0c0-2.4,1.6-4,4-4h16
		C312,443.2,313.6,444.8,313.6,447.2L313.6,447.2z"/>
</g>
<g>
</g>
<g>
</g>
<g>
</g>
<g>
</g>
<g>
</g>
<g>
</g>
<g>
</g>
<g>
</g>
<g>
</g>
<g>
</g>
<g>
</g>
<g>
</g>
<g>
</g>
<g>
</g>
<g>
</g>
</svg>
