<?xml version="1.0" encoding="UTF-8" standalone="no"?>
<!-- Generator: Adobe Illustrator 19.0.0, SVG Export Plug-In . SVG Version: 6.00 Build 0)  -->

<svg
   xmlns:dc="http://purl.org/dc/elements/1.1/"
   xmlns:cc="http://creativecommons.org/ns#"
   xmlns:rdf="http://www.w3.org/1999/02/22-rdf-syntax-ns#"
   xmlns:svg="http://www.w3.org/2000/svg"
   xmlns="http://www.w3.org/2000/svg"
   xmlns:sodipodi="http://sodipodi.sourceforge.net/DTD/sodipodi-0.dtd"
   xmlns:inkscape="http://www.inkscape.org/namespaces/inkscape"
   version="1.1"
   id="Layer_1"
   x="0px"
   y="0px"
   viewBox="0 0 511.851 511.851"
   style="enable-background:new 0 0 511.851 511.851;"
   xml:space="preserve"
   sodipodi:docname="solar_panel.svg"
   inkscape:version="0.92.5 (2060ec1f9f, 2020-04-08)"><metadata
   id="metadata47"><rdf:RDF><cc:Work
       rdf:about=""><dc:format>image/svg+xml</dc:format><dc:type
         rdf:resource="http://purl.org/dc/dcmitype/StillImage" /><dc:title></dc:title></cc:Work></rdf:RDF></metadata><defs
   id="defs45" /><sodipodi:namedview
   pagecolor="#ffffff"
   bordercolor="#666666"
   borderopacity="1"
   objecttolerance="10"
   gridtolerance="10"
   guidetolerance="10"
   inkscape:pageopacity="0"
   inkscape:pageshadow="2"
   inkscape:window-width="1848"
   inkscape:window-height="1009"
   id="namedview43"
   showgrid="false"
   inkscape:zoom="0.46107167"
   inkscape:cx="255.92551"
   inkscape:cy="255.92551"
   inkscape:window-x="72"
   inkscape:window-y="34"
   inkscape:window-maximized="1"
   inkscape:current-layer="Layer_1" />
<rect
   x="216.40013"
   y="427.78506"
   style="fill:#ccd1d9;stroke-width:0.68644077"
   width="87.733994"
   height="73.105942"
   id="rect2" />
<path
   style="fill:#434a54;stroke-width:0.68644077"
   d="m 347.98326,493.57696 c 0,-8.0849 -6.54041,-14.62599 -14.61501,-14.62599 H 187.15843 c -8.07392,0 -14.61501,6.54041 -14.61501,14.62599 v 14.62462 h 175.43916 z"
   id="path4"
   inkscape:connector-curvature="0" />
<path
   style="fill:#4a89dc;stroke-width:0.68644077"
   d="m 380.2041,252.44611 -239.86986,-0.11807 c -8.04165,0 -53.740072,167.90753 -55.434894,175.77758 v 14.6253 c -1.672856,7.84945 3.517323,14.28278 11.558977,14.28278 l 327.610717,0.12905 c 8.04234,0 13.23115,-6.43333 11.55898,-14.28278 l 0.30066,-12.07312 C 434.24415,422.91612 388.24576,252.44611 380.2041,252.44611 Z"
   id="path6"
   inkscape:connector-curvature="0" />
<path
   style="fill:#5d9cec;stroke-width:0.68644077"
   d="m 380.2041,237.83179 -239.86986,-0.12836 c -8.04165,0 -16.00848,6.43332 -17.69164,14.30336 L 84.899346,428.10562 c -1.672856,7.87073 3.517323,14.30336 11.558977,14.30336 l 327.610717,0.10709 c 8.04234,0 13.23115,-6.43264 11.55898,-14.28209 L 397.88476,252.12486 c -1.68315,-7.85975 -9.639,-14.29307 -17.68066,-14.29307 z"
   id="path8"
   inkscape:connector-curvature="0" />
<path
   style="fill:#4a89dc;stroke-width:0.68644077"
   d="m 412.83201,321.90568 -55.36969,-0.12905 -3.64637,-31.52342 52.26148,0.11807 -3.13154,-14.61501 -50.82408,-0.12905 -4.39596,-37.92517 h -14.7118 l 4.38567,37.92517 h -41.69853 l -1.52321,-37.92517 h -14.62531 l 1.51154,37.92517 h -41.74178 l 1.458,-37.92517 h -14.6356 l -1.4477,37.92517 h -41.92437 l 4.22435,-37.92517 H 172.286 l -4.22436,37.92517 h -50.48016 l -3.13086,14.6253 h 51.99308 l -3.50634,31.52342 h -55.242 l -3.13086,14.62531 h 56.74325 l -4.06373,36.55297 H 96.726034 l -3.141839,14.61981 h 62.028845 l -6.10108,54.83358 h 14.71111 l 6.10108,-54.83358 h 50.09508 l -2.0909,54.83358 h 14.62531 l 2.10188,-54.83358 h 50.49115 l 2.19867,54.83358 h 14.63492 l -2.1973,-54.83358 h 50.18088 l 6.34752,54.83358 h 14.71111 l -6.34752,-54.83358 61.86822,0.12906 -3.13086,-14.6308 -60.4315,-0.11738 -4.22435,-36.55297 56.81739,0.11806 z m -191.8547,51.04923 h -49.02286 l 4.06373,-36.55297 h 46.36358 z m 1.96184,-51.1776 h -45.29136 l 3.50634,-31.52341 h 42.98561 z m 15.82658,-31.5241 h 42.88882 l 1.2658,31.52342 h -45.35589 z m -3.15282,82.7017 1.39416,-36.55297 h 46.49195 l 1.458,36.55297 z m 60.66763,-82.7017 h 42.80302 l 3.65598,31.52342 h -45.19457 z m 3.32375,82.7017 -1.46967,-36.55297 h 46.29974 l 4.23534,36.55297 z"
   id="path10"
   inkscape:connector-curvature="0" />
<g
   id="g12">
</g>
<g
   id="g14">
</g>
<g
   id="g16">
</g>
<g
   id="g18">
</g>
<g
   id="g20">
</g>
<g
   id="g22">
</g>
<g
   id="g24">
</g>
<g
   id="g26">
</g>
<g
   id="g28">
</g>
<g
   id="g30">
</g>
<g
   id="g32">
</g>
<g
   id="g34">
</g>
<g
   id="g36">
</g>
<g
   id="g38">
</g>
<g
   id="g40">
</g>
</svg>