<svg height="512" viewBox="0 0 60 60" width="512" xmlns="http://www.w3.org/2000/svg"><g id="Page-1" fill="none" fill-rule="evenodd"><g id="008---Sprinkler" fill-rule="nonzero"><g id="Icons" transform="translate(1)"><rect id="Rectangle-path" fill="#a0522d" height="5" rx="1" width="58" y="54"/><path id="Shape" d="m57 54h-3c.5522847 0 1 .4477153 1 1v3c0 .5522847-.4477153 1-1 1h3c.5522847 0 1-.4477153 1-1v-3c0-.5522847-.4477153-1-1-1z" fill="#783e22"/><path id="Rectangle-path" d="m18 44h8v10h-8z" fill="#607d8b"/><path id="Rectangle-path" d="m23 44h3v10h-3z" fill="#37474f"/><path id="Shape" d="m35.21 25-10.5 6h-22.71c-1.1045695 0-2-.8954305-2-2v-7c0-1.1045695.8954305-2 2-2h4c1.1045695 0 2 .8954305 2 2v3z" fill="#9e9e9e"/><path id="Shape" d="m27.56 25h-11.12l2-6h7.12z" fill="#3f51b5"/><path id="Shape" d="m31.78 25h-4.22l-2-6h-7.12l-2 6h-4.22l2.66-7.95c.4080915-1.2223964 1.5512852-2.0475891 2.84-2.05h8.56c1.2887148.0024109 2.4319085.8276036 2.84 2.05z" fill="#02a9f4"/><path id="Shape" d="m29.12 17.05c-.4080915-1.2223964-1.5512852-2.0475891-2.84-2.05h-3c1.2887148.0024109 2.4319085.8276036 2.84 2.05l2.66 8h3z" fill="#0377bc"/><path id="Shape" d="m44.49 26.6-15.49 8.85-5.51 3.15c-1.4359403.8284271-3.2715729.3359403-4.1-1.1s-.3359403-3.2715729 1.1-4.1l4.2-2.4 10.5-6 6.3-3.6c.9288905-.5358984 2.0731192-.5355317 3.0016661.0009619s1.5003436 1.527608 1.5 2.6c-.0003437 1.072392-.5727755 2.0631397-1.5016661 2.5990381z" fill="#607d8b"/><path id="Shape" d="m45.6 22.51c-.8241141-1.4343732-2.6538081-1.9309405-4.09-1.11.4627613.2594153.8464075.6396052 1.11 1.1.8209405 1.4361919.3243732 3.2658859-1.11 4.09l-15.51 8.86-5.5 3.15c.9282032.5358984 2.0717968.5358984 3 0l5.5-3.15 15.49-8.85c1.4343732-.8241141 1.9309405-2.6538081 1.11-4.09z" fill="#37474f"/><path id="Shape" d="m29 35.45v6.55c0 1.1045695-.8954305 2-2 2h-10c-1.1045695 0-2-.8954305-2-2v-11h9.71l-4.2 2.4c-.9288906.5358984-1.5013224 1.5266461-1.5016661 2.5990381-.0003436 1.072392.5714531 2.0635064 1.5 2.6s2.0727756.5368603 3.0016661.0009619z" fill="#7f8e94"/><path id="Shape" d="m26 37.17v4.83c0 1.1045695-.8954305 2-2 2h3c1.1045695 0 2-.8954305 2-2v-6.55z" fill="#545c60"/><path id="Shape" d="m15 31v8h-3c-1.1045695 0-2-.8954305-2-2v-6z" fill="#607d8b"/><path id="Shape" d="m39 54s2.77-7.39.32-13.29c-.0712742-.161562-.0520426-.3487387.0505954-.4924319.102638-.1436931.2734597-.2225912.4494046-.2075681 1.595073.1335917 3.1022079.7870347 4.29 1.86 2.03 1.79 3.89 5.31 3.89 12.13z" fill="#a4c400"/><path id="Shape" d="m56.05 38.34c-2.51 4.98-.05 15.66-.05 15.66h-8c0-5.94 1.41-9.85 3.12-12.39 1.0695676-1.6668297 2.5369555-3.041432 4.27-4 .2053901-.1278136.4728245-.0902542.6350621.0891904s.1727393.4492994.0249379.6408096z" fill="#a4c400"/><path id="Shape" d="m55.39 37.65c-1.0967706.5961306-2.089649 1.3661178-2.94 2.28-1.45 5.36.55 14.07.55 14.07h3s-2.46-10.68 0-15.66c.0867618-.1811597.0566916-.3966528-.0763487-.547141s-.3432205-.2067537-.5336513-.142859z" fill="#90ac00"/><path id="Shape" d="m52.47 28.54c-1.3845657 4.2089123-1.8450357 8.6669437-1.35 13.07-1.71 2.54-3.12 6.45-3.12 12.39 0-6.82-1.86-10.34-3.89-12.13.6069834-5.4324632 3.3171372-10.411249 7.55-13.87.1734616-.1401789.4178872-.1513905.6034532-.0276798.185566.1237106.2692267.3536464.2065468.5676798z" fill="#60a917"/><path id="Shape" d="m51.66 28c-1.0211722.8334908-1.9619551 1.7608819-2.81 2.77-.9246972 3.5315685-1.1723926 7.2062823-.73 10.83-.715562 1.0698615-1.293448 2.2256335-1.72 3.44 1.1751194 2.8357859 1.7210081 5.8927628 1.6 8.96 0-5.94 1.41-9.85 3.12-12.39-.4950357-4.4030563-.0345657-8.8610877 1.35-13.07.0626799-.2140334-.0209808-.4439692-.2065468-.5676798-.185566-.1237107-.4299916-.1124991-.6034532.0276798z" fill="#549414"/><path id="Shape" d="m36 54h-5c.9704731-1.5222185 1.6298272-3.2215849 1.94-5 .0193161-.1870627.143987-.3465673.3208461-.4104923.1768592-.063925.3747006-.0209911.5091539.1104923 1.418867 1.3996149 2.2214101 3.3070043 2.23 5.3z" fill="#60a917"/><g fill="#02a9f4"><path id="Shape" d="m34 18h-.06c-.2653913-.0154441-.5137106-.1359254-.6900922-.3348239-.1763817-.1988984-.2663072-.4598421-.2499078-.7251761.066406-.7340829.2003053-1.4604864.4-2.17.1417217-.5322768.6871955-.8497247 1.22-.71.5322768.1417217.8497247.6871955.71 1.22-.1587202.5832585-.2690939 1.1786075-.33 1.78-.0317798.5287239-.4703227.9409542-1 .94zm1.85-5.68c-.168394-.0022239-.3334991-.0469399-.48-.13-.4812266-.2639697-.6597488-.8664821-.4-1.35.3385428-.6359457.7159236-1.2504418 1.13-1.84.321502-.44545564.9421456-.54815206 1.39-.23.4488148.31838257.556067.93955152.24 1.39-.36135.511854-.695157 1.042607-1 1.59-.162229.3408725-.5025914.5613346-.88.57zm3.74-4.66c-.4174636.00359205-.7932299-.25253331-.9424988-.64241474-.1492689-.38988142-.0406259-.83146637.2724988-1.10758526.5288444-.46372509 1.0830308-.8977265 1.66-1.3.4491145-.27080033 1.0311362-.14863864 1.3334683.27988431.3023322.42852295.2222534 1.01781075-.1834683 1.35011569-.5142353.36280592-1.0083023.75338587-1.48 1.17-.1823042.16077773-.4169276.24965022-.66.25zm5-3.2c-.3965202.00313279-.757434-.22832281-.92-.59-.1075849-.24265242-.1142845-.51812236-.0186226-.76571783.0956619-.24759548.2858359-.44700062.5286226-.55428217.62-.28 1.27-.53 1.93-.76.3444764-.15562763.7472657-.10371793 1.0410285.13416313.2937627.23788107.4282879.62107403.3476868.9903807-.0806011.36930666-.3625518.66160385-.7287153.75545617-.61.22-1.21.45-1.78.71-.1140027.04875432-.2360781.07588219-.36.08zm5.71-1.77c-.5522847.05522847-1.0447715-.34771526-1.1-.9-.0552285-.55228475.3477153-1.04477152.9-1.1.65-.13 1.33-.24 2-.33.5522847-.07455844 1.0604416.31271525 1.135.865s-.3127153 1.06044156-.865 1.135c-.66.09-1.3.19-1.91.31-.0392868.01040348-.0794627.01709946-.12.02zm5.99-.69c-.5522847 0-1-.44771525-1-1s.4477153-1 1-1h1.71c.5522847 0 1 .44771525 1 1s-.4477153 1-1 1c-.5733333 0-1.1333333 0-1.68 0z"/><path id="Shape" d="m40 18h-.12c-.5416075-.067781-.9288081-.5573449-.87-1.1.1193224-.7810726.3730754-1.5355649.75-2.23.2495756-.490313.8483464-.6869243 1.34-.44.490313.2495756.6869243.8483464.44 1.34-.2576425.4862575-.43973 1.008916-.54 1.55-.0610234.5049651-.4913743.8836739-1 .88zm3.16-5c-.2974322.000483-.5796435-.1314599-.77-.36-.1712242-.2028225-.2547874-.4653978-.2322787-.7298748s.1492423-.5091546.3522787-.6801252c.5571968-.4506325 1.1453057-.8616404 1.76-1.23.4723694-.28332093 1.0849097-.13130363 1.37.34.1392653.2277438.181691.5017162.1178305.7609147-.0638606.2591986-.2287054.4821044-.4578305.6190853-.5314566.3114722-1.0364817.6659931-1.51 1.06-.1786159.1433043-.4010047.220964-.63.22zm5.27-2.76c-.4889813-.0058827-.9019835-.36454023-.976342-.84787046-.0743585-.48333022.2117408-.94954184.676342-1.10212954.6570763-.21380525 1.324606-.39403826 2-.54.3572656-.07859843.7293244.03937255.9760254.30947441s.3305646.65129971.22 1-.3987598.61192716-.7560254.69052559c-.64.14-1.26.31-1.85.49-.0939683.0279052-.1923093.0380784-.29.03zm5.88-1.11c-.5224937.00167446-.958203-.39917807-1-.92-.0461623-.54927473.3608543-1.03232738.91-1.08.65-.06 1.33-.1 2-.13.5522847 0 1 .44771525 1 1s-.4477153 1-1 1c-.68 0-1.32.07-1.94.12z"/></g></g><g id="Icons_copy" fill="#000" transform="translate(0 14)"><path id="Shape" d="m58 39h-.19c-.49-2.49-1.81-10.35.19-14.21.2996603-.5918446.177947-1.3099533-.3-1.77-.4559811-.4606173-1.1622704-.5626823-1.73-.25-1.1128201.6029612-2.1249481 1.3755522-3 2.29-.0502956-3.466513.4630615-6.9181637 1.52-10.22.2906141-.6739201.050922-1.4591602-.5665084-1.8559026s-1.4312676-.288469-1.9234916.2559026c-3.9898514 3.2620602-6.7021135 7.826167-7.66 12.89-1.0487024-.6270596-2.2237345-1.0130439-3.44-1.13-.5202274-.0474273-1.0265446.1847934-1.33.61-.3074627.4274764-.3717799.9836316-.17 1.47 1.86 4.5.45 10-.12 11.91h-1.34c-.2496317-1.8912994-1.1139874-3.6481199-2.46-5-.3837691-.392802-.9524921-.5426682-1.48-.39-.539047.1879984-.9259824.663929-1 1.23-.2600393 1.4738603-.7888285 2.8873546-1.56 4.17h-3.44v-8c1.6568542 0 3-1.3431458 3-3v-6l15-8.57c1.9164281-1.1045695 2.5745695-3.55357192 1.47-5.47s-3.5535719-2.5745695-5.47-1.47l-6.06 3.51h-2.44l-2.43-7.26c-.5422025-1.63365759-2.0687176-2.73725956-3.79-2.74h-8.56c-1.7186307.00130336-3.2443351 1.10029357-3.79 2.73l-2.43 7.27h-2.5v-2c0-1.65685425-1.34314575-3-3-3h-4c-1.65685425 0-3 1.34314575-3 3v7c0 1.6568542 1.34314575 3 3 3h7v5c0 1.6568542 1.3431458 3 3 3h2v2c0 1.6568542 1.3431458 3 3 3v8h-3v-5c0-.5522847-.4477153-1-1-1s-1 .4477153-1 1v5h-3v-2c0-.5522847-.44771525-1-1-1s-1 .4477153-1 1v2h-2v-4c0-.5522847-.44771525-1-1-1s-1 .4477153-1 1v4h-2c-1.1045695 0-2 .8954305-2 2v3c0 1.1045695.8954305 2 2 2h56c1.1045695 0 2-.8954305 2-2v-3c0-1.1045695-.8954305-2-2-2zm-2.41-13.66c-1.34 4.41-.33 11 .18 13.66h-5.77c.15-5.11 1.39-8.52 2.89-10.78.7261503-1.1093319 1.6397741-2.083864 2.7-2.88zm-3.59-9.44c-1.0370115 3.7224066-1.3593628 7.6075885-.95 11.45-.9638508 1.5276773-1.688867 3.1935286-2.15 4.94-.5367004-1.7821866-1.4856598-3.4128894-2.77-4.76.5788412-4.4308869 2.6491112-8.5326315 5.87-11.63zm-10.45 11.22c2.33.5 6.16 2.75 6.42 11.88h-6.6c.63-2.35 1.71-7.36.18-11.88zm-6.82 9c.6253793.8487124 1.0338939 1.8373865 1.19 2.88h-2.23c.4505055-.9088268.7992854-1.8646179 1.04-2.85zm8.27-27.86c.3048058-.1727609.6496472-.26241966 1-.26.7173695-.00284801 1.3813181.37873161 1.74 1 .26709.46104747.3391674 1.0096126.2002433 1.5240073s-.4773639.9520903-.9402433 1.2159927l-21 12c-.4610475.26709-1.0096126.3391674-1.5240073.2002433s-.9520903-.4773639-1.2159927-.9402433c-.26709-.4610475-.3391674-1.0096126-.2002433-1.5240073s.4773639-.9520903.9402433-1.2159927zm-26.18-4.9c.2751442-.81462343 1.0401682-1.36221952 1.9-1.36h8.56c.858799.00351634 1.6194833.55491183 1.89 1.37l2.22 6.63h-2.11l-1.77-5.32c-.1429939-.42537094-.5518476-.70339147-1-.68h-7.07c-.4481524-.02339147-.8570061.25462906-1 .68l-1.72 5.32h-2.11zm10.35 6.64h-8.34l1.33-4h5.68zm-25.17 5v-7c0-.55228475.44771525-1 1-1h4c.55228475 0 1 .44771525 1 1v3c0 .5522847.44771525 1 1 1h23.44l-7 4h-22.44c-.55228475 0-1-.4477153-1-1zm11 9c-.5522847 0-1-.4477153-1-1v-5h3v6zm4 4v-10h4.94l-.92.53c-1.5708893.9007585-2.340708 2.7444894-1.8767537 4.4948624s2.0459418 2.9707336 3.8567537 2.9751376c.7021011.0056346 1.3928289-.1774082 2-.53l4-2.29v4.82c0 .5522847-.4477153 1-1 1h-10c-.5522847 0-1-.4477153-1-1zm3 3h6v8h-6zm-18 13v-3h56v3z"/></g></g></g></svg>