<svg height="504pt" viewBox="-34 0 504 504.31558" width="504pt" xmlns="http://www.w3.org/2000/svg"><path d="m428.875 285.378906c.007812 55.652344-22.097656 109.03125-61.453125 148.382813-39.351563 39.355469-92.730469 61.460937-148.382813 61.453125-4.199218 0-8.394531-.085938-12.589843-.421875-110.796875-6.636719-197.246094-98.421875-197.246094-209.414063 0-110.992187 86.449219-202.78125 197.246094-209.417968 4.195312-.335938 8.390625-.421876 12.589843-.421876 55.652344-.007812 109.03125 22.097657 148.382813 61.453126 39.355469 39.351562 61.460937 92.730468 61.453125 148.386718zm0 0" fill="#37474f"/><path d="m418.382812 294.191406c0-115.65625-88.3125-209.417968-197.246093-209.417968-108.9375 0-197.246094 93.761718-197.246094 209.417968s88.308594 209.414063 197.246094 209.414063c108.933593 0 197.246093-93.757813 197.246093-209.414063zm0 0" fill="#607d8b"/><path d="m395.046875 276.984375c-1.09375-24.519531-7.386719-48.523437-18.464844-70.421875-.335937-.671875-.585937-1.257812-.921875-1.847656-2.53125-5.03125-5.363281-9.910156-8.480468-14.605469-13.597657-21.238281-31.636719-39.277344-52.875-52.875-4.695313-3.117187-9.574219-5.949219-14.605469-8.480469-22.394531-11.636718-47.054688-18.253906-72.269531-19.386718-2.769532-.167969-5.539063-.253907-8.390626-.253907-2.855468 0-5.625.085938-8.394531.253907-1.425781.082031-2.855469.167968-4.195312.25 23.765625 1.617187 46.941406 8.132812 68.070312 19.136718 5.03125 2.53125 9.910157 5.363282 14.601563 8.480469 21.238281 13.597656 39.28125 31.636719 52.878906 52.875 3.117188 4.695313 5.949219 9.574219 8.480469 14.605469.335937.589844.585937 1.175781.921875 1.847656 11.078125 21.898438 17.371094 45.902344 18.464844 70.421875.167968 2.769531.253906 5.539063.253906 8.394531 0 2.851563-.085938 5.621094-.253906 8.390625-1.132813 25.214844-7.75 49.875-19.386719 72.269531-2.53125 5.03125-5.363281 9.910157-8.480469 14.605469-13.597656 21.238281-31.636719 39.277344-52.878906 52.875-4.691406 3.117188-9.570313 5.949219-14.601563 8.476563-21.128906 11.007812-44.304687 17.523437-68.070312 19.140625 1.339843.082031 2.769531.167969 4.195312.25 2.769531.167969 5.539063.253906 8.394531.253906 2.851563 0 5.621094-.085937 8.390626-.253906 25.214843-1.132813 49.875-7.75 72.269531-19.390625 5.035156-2.527344 9.910156-5.359375 14.605469-8.476563 21.238281-13.597656 39.277343-31.636719 52.878906-52.875 3.113281-4.695312 5.945312-9.574219 8.476562-14.605469 11.636719-22.394531 18.253906-47.054687 19.386719-72.269531.167969-2.769531.253906-5.539062.253906-8.390625 0-2.855468-.085937-5.625-.253906-8.394531zm0 0" fill="#0377bc"/><path d="m219.039062 184.65625c-4.210937-.019531-8.421874.261719-12.589843.839844 25.878906 3.238281 49.5 16.386718 65.886719 36.679687-55.839844 15.417969-107.863282 42.289063-152.761719 78.898438.933593 6.179687 2.480469 12.253906 4.617187 18.128906 49.03125-45.945313 108.523438-79.25 173.324219-97.027344-19.132813-23.738281-47.988281-37.535156-78.476563-37.519531zm0 0" fill="#0377bc"/><path d="m369.867188 276.984375c-1.09375-24.519531-7.390626-48.523437-18.464844-70.421875-.335938-.671875-.585938-1.257812-.925782-1.847656-2.527343-5.03125-5.359374-9.910156-8.476562-14.605469-13.597656-21.238281-31.640625-39.277344-52.878906-52.875-4.691406-3.117187-9.570313-5.949219-14.601563-8.480469-21.128906-11.003906-44.304687-17.515625-68.070312-19.136718-23.769531 1.621093-46.945313 8.132812-68.074219 19.136718-5.03125 2.53125-9.910156 5.363282-14.601562 8.480469-21.238282 13.597656-39.28125 31.636719-52.878907 52.875-3.117187 4.695313-5.949219 9.574219-8.480469 14.605469-11.636718 22.394531-18.253906 47.054687-19.386718 72.269531-.167969 2.769531-.253906 5.539063-.253906 8.394531 0 2.851563.085937 5.621094.253906 8.390625 1.132812 25.214844 7.75 49.875 19.386718 72.269531 2.53125 5.03125 5.363282 9.910157 8.480469 14.605469 0 .082031.082031.082031.082031.164063 13.621094 21.148437 31.625 39.125 52.796876 52.710937 4.691406 3.117188 9.570312 5.949219 14.601562 8.476563 21.128906 11.007812 44.304688 17.523437 68.074219 19.140625 23.765625-1.617188 46.941406-8.132813 68.070312-19.140625 5.03125-2.527344 9.910157-5.359375 14.601563-8.476563 21.242187-13.597656 39.28125-31.636719 52.878906-52.875 3.117188-4.695312 5.949219-9.574219 8.480469-14.605469 11.636719-22.394531 18.253906-47.054687 19.386719-72.269531.167968-2.769531.253906-5.539062.253906-8.390625 0-2.855468-.085938-5.625-.253906-8.394531zm-245.675782 42.21875c-2.136718-5.875-3.683594-11.949219-4.617187-18.128906-.84375-5.191407-1.265625-10.441407-1.257813-15.695313-.019531-50.757812 37.765625-93.582031 88.132813-99.882812 4.167969-.578125 8.378906-.859375 12.589843-.839844 30.488282-.015625 59.34375 13.78125 78.476563 37.519531-64.800781 17.777344-124.292969 51.082031-173.324219 97.027344zm0 0" fill="#02a9f4"/><path d="m297.515625 222.175781c-6.964844 2.011719-13.765625 4.113281-20.394531 6.460938 6.628906-2.347657 13.34375-4.53125 20.394531-6.460938-2.402344-3.003906-5.011719-5.835937-7.804687-8.480469-.589844-.585937-1.089844-1.171874-1.761719-1.761718-.574219-.601563-1.191407-1.164063-1.847657-1.679688-2.792968-2.582031-5.765624-4.96875-8.898437-7.132812-1.257813-.921875-2.601563-1.761719-3.945313-2.601563-.921874-.585937-1.84375-1.175781-2.769531-1.761719-1.089843-.671874-2.179687-1.257812-3.273437-1.847656-9.320313-5.121094-19.414063-8.691406-29.878906-10.574218-3.277344-.589844-6.585938-1.011719-9.90625-1.261719v63.457031c1.09375-.503906 2.351562-1.007812 3.441406-1.511719-6.964844 3.191407-13.679688 6.628907-20.226563 10.070313v-72.097656c-1.464843.085937-2.921875.253906-4.363281.503906-1.34375.167968-2.6875.335937-4.03125.585937-.671875.082031-1.257812.25-1.847656.335938-.957032.148437-1.910156.34375-2.851563.585937-1.257812.253906-2.519531.503906-3.695312.839844-1.339844.335938-2.601563.671875-3.859375 1.09375-1.058594.257812-2.097656.59375-3.105469 1.003906-.503906.167969-1.007813.335938-1.425781.503906-.839844.253907-1.679688.589844-2.519532.925782-1.488281.5-2.945312 1.085937-4.363281 1.761718-1.429687.585938-2.769531 1.257813-4.199219 1.929688-1.339843.671875-2.769531 1.425781-4.109374 2.183594-1.34375.671875-2.605469 1.511718-3.945313 2.265625-1.429687.921875-2.769531 1.761719-4.113281 2.6875-2.484375 1.648437-4.863282 3.441406-7.136719 5.371093-2.347656 1.929688-4.613281 3.945313-6.796875 6.125-1.089844 1.09375-2.183594 2.183594-3.191406 3.273438-1.003906 1.09375-2.011719 2.269531-3.019532 3.441406-1.007812 1.175782-1.929687 2.351563-2.9375 3.609375-.925781 1.175781-1.761718 2.433594-2.6875 3.695313-.839843 1.257812-1.761718 2.515625-2.515624 3.777344-.839844 1.34375-1.679688 2.683593-2.4375 4.027343-.753907 1.34375-1.507813 2.6875-2.179688 4.03125-.671875 1.425781-1.34375 2.769531-2.015625 4.195313-.585937 1.257812-1.175781 2.601562-1.679687 3.945312-.753907 1.761719-1.425782 3.609375-2.011719 5.453125-.421875 1.261719-.839844 2.519531-1.175781 3.78125-.589844 1.929688-1.089844 3.859375-1.59375 5.875-.253907 1.089844-.421876 2.179688-.671876 3.273438-.253906 1.257812-.503906 2.601562-.671874 3.941406-.167969.925781-.253907 1.847656-.335938 2.855469-.167969.925781-.253906 1.847656-.335938 2.769531-.097656.585937-.152343 1.171875-.167968 1.765625-.253906 2.601562-.335938 5.285156-.335938 7.972656-.042968 11.53125 1.945313 22.984375 5.875 33.824219 12.71875 35.871094 44.644532 61.457031 82.425782 66.054687 4.113281.578126 8.265624.859376 12.421874.839844 38.773438-.019531 74.097657-22.285156 90.839844-57.257812 16.742188-34.972656 11.9375-76.449219-12.363281-106.664063zm0 0" fill="#607d8b"/><path d="m185.464844 190.445312c-.839844.253907-1.679688.589844-2.519532.925782-1.488281.5-2.945312 1.089844-4.363281 1.761718-1.429687.585938-2.769531 1.257813-4.199219 1.929688-1.339843.671875-2.769531 1.429688-4.109374 2.183594-1.34375.671875-2.605469 1.511718-3.945313 2.265625-1.429687.925781-2.769531 1.761719-4.113281 2.6875-2.484375 1.648437-4.863282 3.441406-7.136719 5.371093-2.347656 1.929688-4.613281 3.945313-6.796875 6.128907-1.089844 1.089843-2.183594 2.179687-3.191406 3.273437-1.003906 1.089844-2.011719 2.265625-3.019532 3.441406-1.007812 1.171876-1.929687 2.347657-2.9375 3.605469-.925781 1.175781-1.761718 2.433594-2.6875 3.695313-.839843 1.257812-1.761718 2.515625-2.515624 3.777344-.839844 1.34375-1.679688 2.683593-2.4375 4.027343-.753907 1.34375-1.507813 2.6875-2.179688 4.03125-.671875 1.425781-1.34375 2.769531-2.015625 4.195313-.585937 1.257812-1.175781 2.601562-1.679687 3.945312-.753907 1.761719-1.425782 3.609375-2.011719 5.457032-.421875 1.257812-.839844 2.515624-1.175781 3.777343-.589844 1.929688-1.089844 3.859375-1.59375 5.875-.253907 1.089844-.421876 2.183594-.671876 3.273438-.253906 1.257812-.503906 2.601562-.671874 3.945312-.167969.921875-.253907 1.84375-.335938 2.851563-.167969.925781-.253906 1.847656-.335938 2.769531-.097656.585937-.152343 1.171875-.167968 1.765625-.253906 2.601562-.335938 5.285156-.335938 7.972656-.042968 11.53125 1.945313 22.984375 5.875 33.824219 12.71875 35.875 44.644532 61.457031 82.425782 66.058594 34.753906-4.449219 64.699218-26.632813 79.082031-58.582031 14.382812-31.949219 11.132812-69.078126-8.578125-98.042969h-.085938c-1.441406-2.242188-3.011718-4.398438-4.699218-6.460938-8.730469 2.515625-17.121094 5.203125-25.265626 8.054688 8.226563-2.851563 16.535157-5.621094 25.265626-8.054688-2.402344-3.003906-5.011719-5.835937-7.804688-8.480469-.589844-.585937-1.09375-1.171874-1.765625-1.761718-.574219-.601563-1.191406-1.164063-1.84375-1.679688-2.792969-2.582031-5.769531-4.96875-8.898437-7.132812-1.257813-.921875-2.601563-1.761719-3.945313-2.601563-.921875-.585937-1.847656-1.175781-2.769531-1.761719-1.089844-.671874-2.183594-1.257812-3.273438-1.847656-4.683594-2.570312-9.566406-4.761718-14.605468-6.546875-4.96875-1.761719-10.078126-3.109375-15.273438-4.027343l-1.511719-.253907c-1.425781-.25-2.855469-.417969-4.363281-.585937-1.34375-.167969-2.6875-.335938-4.03125-.417969" fill="#cfd8dc"/><path d="m70.894531 380.644531.335938-.167969c-.085938.082032-.167969.25-.253907.332032 0-.082032-.082031-.082032-.082031-.164063zm0 0" fill="#b0d3f0"/><path d="m376.582031 206.5625c-1.761719.25-3.523437.417969-5.289062.671875l4.367187-2.519531c.335938.589844.585938 1.175781.921875 1.847656zm0 0" fill="#b0d3f0"/><path d="m193.855469 8.394531h50.363281c9.269531 0 16.785156 7.515625 16.785156 16.785157v16.789062h-83.933594v-16.789062c0-9.269532 7.515626-16.785157 16.785157-16.785157zm0 0" fill="#cfd8dc"/><path d="m193.855469 41.96875h50.363281v35.167969h-50.363281zm0 0" fill="#424242"/><path d="m378.164062 61.921875 27.066407 19.863281c7.472656 5.484375 9.085937 15.992188 3.601562 23.464844l-9.929687 13.535156-54.136719-39.726562 9.929687-13.53125c5.488282-7.476563 15.992188-9.089844 23.46875-3.605469zm0 0" fill="#cfd8dc"/><path d="m365.839844 135.46875 19.554687-26.605469-27.109375-19.894531-18.296875 24.929688zm0 0" fill="#424242"/><path d="m227.429688 105.167969v29.128906c0 4.632813-3.757813 8.390625-8.390626 8.390625-4.636718 0-8.394531-3.757812-8.394531-8.390625v-29.128906c2.769531-.164063 5.539063-.25 8.394531-.25 2.851563 0 5.621094.085937 8.390626.25zm0 0" fill="#5e5f62"/><path d="m227.429688 436.460938v24.925781c-2.769532.167969-5.539063.253906-8.390626.253906-2.855468 0-5.625-.085937-8.394531-.253906v-24.925781c0-4.636719 3.757813-8.394532 8.394531-8.394532 4.632813 0 8.390626 3.757813 8.390626 8.394532zm0 0" fill="#2c2f38"/><path d="m147.691406 161.824219c-4.039062 2.269531-9.148437.890625-11.496094-3.105469l-12.964843-22.152344c4.695312-3.117187 9.570312-5.945312 14.605469-8.476562l12.964843 22.234375c2.28125 4.039062.898438 9.164062-3.109375 11.5zm0 0" fill="#5e5f62"/><path d="m314.304688 433.519531c-4.695313 3.117188-9.570313 5.949219-14.605469 8.476563l-12.421875-21.570313c-1.5-2.605469-1.492188-5.816406.015625-8.421875 1.507812-2.601562 4.292969-4.203125 7.300781-4.195312 3.011719.003906 5.789062 1.617187 7.285156 4.226562zm0 0" fill="#2c2f38"/><path d="m95.484375 214.03125c-2.34375 3.996094-7.457031 5.378906-11.496094 3.105469l-22.550781-12.964844c2.53125-5.035156 5.363281-9.914063 8.476562-14.605469l22.464844 12.96875c4.007813 2.335938 5.390625 7.460938 3.105469 11.496094zm0 0" fill="#5e5f62"/><path d="m375.660156 366.039062c-2.53125 5.03125-5.363281 9.910157-8.476562 14.605469l-21.488282-12.425781c-2.609374-1.496094-4.21875-4.273438-4.226562-7.285156-.003906-3.007813 1.59375-5.792969 4.195312-7.300782 2.605469-1.511718 5.816407-1.515624 8.425782-.015624zm0 0" fill="#2c2f38"/><path d="m76.347656 285.378906c-.011718 4.628906-3.761718 8.378906-8.390625 8.390625h-29.125c-.167969-2.769531-.253906-5.539062-.253906-8.390625 0-2.855468.085937-5.625.253906-8.394531h29.125c4.628907.011719 8.378907 3.761719 8.390625 8.394531zm0 0" fill="#5e5f62"/><path d="m395.300781 285.378906c0 2.851563-.085937 5.621094-.253906 8.390625h-24.925781c-4.636719 0-8.394532-3.757812-8.394532-8.390625 0-4.636718 3.757813-8.394531 8.394532-8.394531h24.925781c.167969 2.769531.253906 5.539063.253906 8.394531zm0 0" fill="#2c2f38"/><g fill="#5e5f62"><path d="m91.960938 353.449219c-7.804688 9.230469-14.6875 18.296875-20.730469 27.027343l-2.980469 1.871094c-3.113281-4.695312-5.945312-9.570312-8.476562-14.605468l24.214843-14.125c2.460938-1.394532 5.457031-1.457032 7.972657-.167969zm0 0"/><path d="m92.378906 368.21875-21.148437 12.257812c6.042969-8.730468 12.925781-17.796874 20.730469-27.027343 1.472656.714843 2.699218 1.855469 3.523437 3.273437 2.285156 4.035156.902344 9.160156-3.105469 11.496094zm0 0"/><path d="m376.144531 204.40625-4.851562 2.828125c-10.15625 1.257813-19.976563 2.855469-29.542969 4.617187-.9375-3.640624.679688-7.457031 3.945312-9.316406l21.96875-12.734375c3.117188 4.691407 5.949219 9.570313 8.480469 14.605469zm0 0"/></g><path d="m371.292969 207.234375-17.203125 9.902344c-4.039063 2.273437-9.152344.890625-11.5-3.105469-.402344-.671875-.6875-1.410156-.839844-2.179688 9.566406-1.765624 19.386719-3.359374 29.542969-4.617187zm0 0" fill="#2c2f38"/><path d="m150.800781 420.425781-12.425781 21.574219c-5.03125-2.53125-9.910156-5.363281-14.601562-8.480469l12.421874-21.484375c1.5-2.609375 4.277344-4.222656 7.285157-4.226562 3.007812-.007813 5.792969 1.59375 7.300781 4.195312 1.511719 2.605469 1.515625 5.816406.019531 8.421875zm0 0" fill="#2c2f38"/><path d="m315.117188 136.007812-13.238282 22.710938c-2.316406 4.035156-7.464844 5.425781-11.496094 3.105469-4.035156-2.316407-5.425781-7.464844-3.105468-11.5l13.234375-22.796875c5.035156 2.53125 9.914062 5.363281 14.605469 8.480468zm0 0" fill="#5e5f62"/><path d="m227.429688 185.074219v63.457031c-5.789063 2.769531-11.328126 5.621094-16.785157 8.558594v-72.097656c1.089844-.085938 2.097657-.167969 3.1875-.167969 1.765625-.085938 3.441407-.167969 5.207031-.167969 1.625-.03125 3.246094.027344 4.867188.167969 1.179688 0 2.355469.085937 3.523438.25zm0 0" fill="#a5a5a4"/><path d="m227.429688 159.476562v25.597657c-1.167969-.167969-2.34375-.25-3.523438-.25-1.621094-.140625-3.242188-.199219-4.867188-.167969-1.765624 0-3.441406.082031-5.207031.167969-1.089843 0-2.097656.082031-3.1875.167969v-25.515626c0-4.636718 3.757813-8.394531 8.394531-8.394531 4.632813 0 8.390626 3.757813 8.390626 8.394531zm0 0" fill="#a5a5a4"/><path d="m227.429688 248.53125v11.664062c0 4.636719-3.757813 8.394532-8.390626 8.394532-4.636718 0-8.394531-3.757813-8.394531-8.394532v-3.105468c5.457031-2.9375 10.996094-5.789063 16.785157-8.558594zm0 0" fill="#5e5f62"/><path d="m323.957031 398.6875c-2.226562.003906-4.363281-.882812-5.9375-2.457031l-87.121093-87.125c-2.121094-2.117188-2.949219-5.210938-2.171876-8.105469.777344-2.894531 3.039063-5.160156 5.933594-5.933594 2.898438-.777344 5.988282.050782 8.105469 2.171875l87.125 87.121094c2.398437 2.402344 3.117187 6.011719 1.816406 9.148437-1.296875 3.136719-4.355469 5.179688-7.75 5.179688zm0 0" fill="#5e5f62"/><path d="m244.21875 285.378906c0 13.90625-11.273438 25.179688-25.179688 25.179688s-25.183593-11.273438-25.183593-25.179688c0-13.910156 11.277343-25.183594 25.183593-25.183594s25.179688 11.273438 25.179688 25.183594zm0 0" fill="#607d8b"/><path d="m261.003906 50.359375c2.226563 0 4.363282-.882813 5.9375-2.457031 1.574219-1.574219 2.457032-3.707032 2.457032-5.933594v-16.789062c-.015626-13.898438-11.28125-25.164063-25.179688-25.179688h-50.363281c-13.898438.015625-25.164063 11.28125-25.179688 25.179688v16.789062c0 2.226562.882813 4.359375 2.457031 5.933594 1.574219 1.574218 3.710938 2.457031 5.9375 2.457031h8.394532v19.375c-99.5 15.316406-175.664063 96.621094-184.464844 196.90625s52.042969 193.605469 147.355469 226.015625c95.308593 32.414062 200.429687-4.476562 254.589843-89.335938 54.160157-84.859374 43.34375-195.738281-26.191406-268.535156l10.425782-14.183594 6.753906 4.957032c3.742187 2.734375 8.988281 1.929687 11.734375-1.804688l9.929687-13.53125c8.230469-11.214844 5.8125-26.976562-5.398437-35.207031l-27.066407-19.851563c-5.382812-3.957031-12.117187-5.609374-18.71875-4.597656-6.601562 1.011719-12.53125 4.605469-16.484374 9.992188l-9.929688 13.53125c-2.742188 3.738281-1.9375 8.992187 1.800781 11.738281l6.742188 4.949219-8.613281 11.742187c-25.785157-16.867187-54.871094-28.042969-85.316407-32.785156v-19.375zm100.460938 20.132813c1.3125-1.800782 3.289062-3 5.492187-3.335938s4.449219.21875 6.242188 1.539062l27.066406 19.863282c3.738281 2.742187 4.542969 7.992187 1.800781 11.726562l-4.960937 6.773438-6.691407-4.910156-.050781-.058594-27.113281-19.894532-.042969-.019531-6.707031-4.921875zm-1.386719 30.21875 13.570313 9.957031-9.035157 12.300781c-4.179687-3.75-8.507812-7.335938-12.976562-10.75zm60.402344 184.667968c0 111.25-90.1875 201.441406-201.441407 201.441406-111.253906 0-201.445312-90.191406-201.445312-201.441406 0-111.253906 90.191406-201.445312 201.445312-201.445312 111.199219.128906 201.3125 90.242187 201.441407 201.445312zm-218.230469-217.523437v-17.496094h33.574219v17.496094c-5.546875-.421875-11.132813-.707031-16.785157-.707031-5.65625 0-11.242187.285156-16.789062.707031zm41.96875-34.28125h-58.753906v-8.394531c.003906-4.632813 3.757812-8.386719 8.390625-8.394532h50.363281c4.632812.007813 8.386719 3.761719 8.394531 8.394532v8.394531zm0 0"/><path d="m127.148438 125.3125c-.140626.070312-.300782.066406-.4375.148438-.136719.078124-.210938.214843-.34375.300781-27.714844 16.164062-50.78125 39.226562-66.945313 66.945312-.085937.132813-.222656.203125-.300781.34375-.082032.136719-.078125.292969-.148438.433594-32.789062 56.875-32.789062 126.910156 0 183.785156.070313.140625.066406.296875.148438.433594.113281.199219.28125.347656.410156.53125 16.160156 27.636719 39.183594 50.628906 66.835938 66.757813.132812.085937.207031.222656.34375.304687.203124.117187.425781.164063.636718.261719 56.773438 32.632812 126.609375 32.632812 183.378906 0 .210938-.101563.433594-.144532.640626-.261719.136718-.082031.207031-.21875.339843-.304687 27.65625-16.128907 50.679688-39.125 66.839844-66.761719.128906-.183594.292969-.328125.410156-.527344.078125-.136719.074219-.292969.144531-.433594 32.789063-56.875 32.789063-126.910156 0-183.785156-.070312-.140625-.066406-.296875-.144531-.433594-.082031-.140625-.21875-.210937-.304687-.34375-16.164063-27.71875-39.226563-50.78125-66.945313-66.945312-.132812-.085938-.203125-.222657-.339843-.300781-.140626-.082032-.296876-.078126-.441407-.148438-56.871093-32.789062-126.90625-32.789062-183.777343 0zm100.28125 8.984375v-16.363281c23.734374 1.136718 46.949218 7.339844 68.085937 18.1875l-8.207031 14.214844c-2.316406 4.015624-.9375 9.148437 3.074218 11.464843 4.015626 2.316407 9.148438.941407 11.464844-3.070312l8.203125-14.203125c19.929688 12.925781 36.910157 29.90625 49.835938 49.835937l-14.207031 8.203125c-4.011719 2.316406-5.386719 7.449219-3.070313 11.464844 2.320313 4.011719 7.449219 5.390625 11.464844 3.074219l14.21875-8.207031c10.847656 21.136718 17.050781 44.351562 18.1875 68.085937h-16.359375c-4.636719 0-8.394532 3.757813-8.394532 8.394531 0 4.632813 3.757813 8.390625 8.394532 8.390625h16.359375c-1.136719 23.734375-7.335938 46.949219-18.1875 68.085938l-14.21875-8.207031c-2.597657-1.503907-5.796875-1.503907-8.398438-.003907-2.597656 1.5-4.199219 4.273438-4.195312 7.273438 0 3 1.601562 5.773437 4.199219 7.269531l14.207031 8.203125c-12.925781 19.929687-29.90625 36.910156-49.835938 49.835937l-8.203125-14.203124c-2.316406-4.011719-7.449218-5.386719-11.464844-3.070313-4.011718 2.316406-5.390624 7.449219-3.074218 11.464844l8.207031 14.214843c-21.136719 10.847657-44.351563 17.050782-68.085937 18.1875v-16.359374c0-4.636719-3.757813-8.394532-8.390626-8.394532-4.636718 0-8.394531 3.757813-8.394531 8.394532v16.359374c-23.734375-1.136718-46.945312-7.339843-68.085937-18.1875l8.207031-14.214843c1.503906-2.597657 1.503906-5.796875.003906-8.398438-1.5-2.597656-4.273437-4.199219-7.273437-4.195312-3 0-5.769532 1.601562-7.269532 4.199219l-8.203124 14.203124c-19.929688-12.925781-36.910157-29.90625-49.835938-49.835937l14.207031-8.203125c2.597657-1.496094 4.199219-4.269531 4.203125-7.269531 0-3-1.601562-5.773438-4.199218-7.273438-2.597657-1.5-5.800782-1.5-8.398438.003907l-14.214844 8.207031c-10.851562-21.136719-17.054687-44.351563-18.191406-68.085938h16.363281c4.632813 0 8.390625-3.757812 8.390625-8.390625 0-4.636718-3.757812-8.394531-8.390625-8.394531h-16.363281c1.136719-23.734375 7.339844-46.949219 18.191406-68.085937l14.214844 8.207031c2.597656 1.503906 5.800781 1.503906 8.398438.003906 2.597656-1.5 4.199218-4.273437 4.199218-7.273437-.003906-3-1.605468-5.773438-4.203125-7.269532l-14.207031-8.203125c12.925781-19.929687 29.90625-36.910156 49.835938-49.835937l8.203124 14.203125c1.5 2.597656 4.269532 4.199219 7.269532 4.199219 3 .003906 5.773437-1.597657 7.273437-4.195313s1.5-5.800781-.003906-8.398437l-8.207031-14.214844c21.140625-10.847656 44.351562-17.050782 68.085937-18.1875v16.363281c0 4.632813 3.757813 8.390625 8.394531 8.390625 4.632813 0 8.390626-3.757812 8.390626-8.390625zm0 0"/><path d="m210.644531 159.476562v17.210938c-47.195312 3.566406-86.699219 37.167969-97.796875 83.175781-11.097656 46.007813 8.746094 93.925781 49.125 118.613281 40.378906 24.691407 92.070313 20.519532 127.96875-10.328124l28.078125 28.082031c3.289063 3.226562 8.558594 3.203125 11.816407-.054688 3.257812-3.257812 3.28125-8.527343.054687-11.816406l-28.082031-28.082031c26.792968-31.140625 33.777344-74.714844 18.058594-112.675782-15.722657-37.957031-51.46875-63.832031-92.4375-66.914062v-17.210938c0-4.636718-3.757813-8.394531-8.390626-8.394531-4.636718 0-8.394531 3.757813-8.394531 8.394531zm8.394531 218.226563c-49.355468.011719-89.988281-38.800781-92.234374-88.101563-2.246094-49.304687 34.6875-91.652343 83.839843-96.128906v59.523438c-16.367187 4.195312-27.046875 19.921875-24.914062 36.683594 2.132812 16.757812 16.414062 29.308593 33.308593 29.269531 5.972657-.03125 11.828126-1.671875 16.945313-4.753907l42.089844 42.089844c-16.550781 13.851563-37.453125 21.433594-59.035157 21.417969zm8.390626-184.230469c34.164062 3.082032 63.792968 24.871094 76.917968 56.5625s7.578125 68.046875-14.402344 94.378906l-42.089843-42.089843c3.082031-5.117188 4.722656-10.972657 4.757812-16.945313-.046875-15.269531-10.398437-28.578125-25.183593-32.382812zm8.394531 91.90625c.003906 4.445313-1.765625 8.707032-4.910157 11.847656l-.015624.011719-.011719.015625c-5.667969 5.648438-14.535157 6.503906-21.183594 2.050782-6.644531-4.457032-9.21875-12.988282-6.148437-20.375 3.070312-7.390626 10.933593-11.582032 18.78125-10.015626 7.847656 1.570313 13.492187 8.460938 13.488281 16.464844zm0 0"/></svg>