<?xml version="1.0" encoding="iso-8859-1"?>
<!-- Generator: Adobe Illustrator 19.0.0, SVG Export Plug-In . SVG Version: 6.00 Build 0)  -->
<svg version="1.1" id="Layer_1" xmlns="http://www.w3.org/2000/svg" xmlns:xlink="http://www.w3.org/1999/xlink" x="0px" y="0px"
	 viewBox="0 0 512 512" style="enable-background:new 0 0 512 512;" xml:space="preserve">
<path style="fill:#E8E6D9;" d="M444.125,503.983H67.875c-9.446,0-17.102-7.656-17.102-17.102V25.119
	c0-9.446,7.656-17.102,17.102-17.102h376.251c9.446,0,17.102,7.656,17.102,17.102v461.762
	C461.228,496.327,453.571,503.983,444.125,503.983z"/>
<path style="fill:#D1CDB2;" d="M67.875,8.017c-9.445,0-17.102,7.658-17.102,17.102v461.762c0,9.445,7.658,17.102,17.102,17.102
	h376.251c9.445,0,17.102-7.658,17.102-17.102H67.875V8.017z"/>
<rect x="204.693" y="127.733" style="fill:#58AB23;" width="136.818" height="256.534"/>
<polygon style="fill:#66BF00;" points="281.653,332.96 144.835,332.96 170.489,230.347 170.489,127.733 307.307,127.733 
	307.307,230.347 "/>
<polygon style="fill:#B6E462;" points="144.835,332.96 281.653,332.96 307.307,230.347 170.489,230.347 "/>
<polygon style="fill:#97D352;" points="144.835,332.96 169.42,332.96 195.073,230.347 170.489,230.347 "/>
<rect x="144.835" y="332.96" style="fill:#66BF00;" width="136.818" height="51.307"/>
<g>
	<rect x="170.489" y="127.733" style="fill:#58AB23;" width="25.653" height="102.614"/>
	<rect x="144.835" y="332.96" style="fill:#58AB23;" width="25.653" height="51.307"/>
</g>
<g>
	<circle style="fill:#BAB48C;" cx="401.37" cy="76.426" r="25.653"/>
	<circle style="fill:#BAB48C;" cx="110.63" cy="76.426" r="25.653"/>
	<circle style="fill:#BAB48C;" cx="401.37" cy="444.125" r="25.653"/>
	<circle style="fill:#BAB48C;" cx="110.63" cy="444.125" r="25.653"/>
</g>
<path d="M444.125,0H67.875C54.024,0,42.756,11.268,42.756,25.119v316.392c0,4.428,3.588,8.017,8.017,8.017s8.017-3.588,8.017-8.017
	V25.119c0-5.01,4.076-9.086,9.086-9.086h376.251c5.01,0,9.086,4.076,9.086,9.086v461.762c0,5.01-4.076,9.086-9.086,9.086H67.875
	c-5.01,0-9.086-4.076-9.086-9.086V375.716c0-4.428-3.588-8.017-8.017-8.017s-8.017,3.588-8.017,8.017v111.165
	c0,13.851,11.268,25.119,25.119,25.119h376.251c13.851,0,25.119-11.268,25.119-25.119V25.119C469.244,11.268,457.976,0,444.125,0z"
	/>
<path d="M162.472,127.733V229.36l-25.414,101.656c-0.011,0.042-0.014,0.083-0.024,0.124c-0.045,0.19-0.079,0.383-0.11,0.577
	c-0.015,0.099-0.033,0.198-0.045,0.297c-0.021,0.186-0.032,0.374-0.042,0.564c-0.005,0.105-0.015,0.208-0.016,0.313
	c0,0.024-0.003,0.046-0.003,0.069v51.307c0,4.428,3.588,8.017,8.017,8.017h196.676c4.428,0,8.017-3.588,8.017-8.017v-145.37
	c0-4.428-3.588-8.017-8.017-8.017c-4.428,0-8.017,3.588-8.017,8.017v137.352H289.67v-42.301l25.414-101.657
	c0.01-0.038,0.013-0.078,0.021-0.117c0.051-0.221,0.092-0.446,0.125-0.673c0.012-0.079,0.027-0.158,0.036-0.238
	c0.034-0.301,0.056-0.606,0.056-0.917v-94.597h18.171v68.944c0,4.428,3.588,8.017,8.017,8.017s8.017-3.588,8.017-8.017v-76.96
	c0-4.428-3.588-8.017-8.017-8.017H170.487C166.06,119.716,162.472,123.304,162.472,127.733z M176.748,238.363h120.291l-21.645,86.58
	H155.102L176.748,238.363z M152.852,340.977h120.785v35.273H152.852V340.977z M299.29,135.749v86.58H178.505v-86.58H299.29z"/>
<path d="M238.898,110.096c4.428,0,8.017-3.588,8.017-8.017V50.772c0-4.428-3.588-8.017-8.017-8.017h-34.205
	c-4.428,0-8.017,3.588-8.017,8.017v51.307c0,4.428,3.588,8.017,8.017,8.017H238.898z M212.71,58.789h18.171v35.273H212.71V58.789z"
	/>
<path d="M272.568,102.079V72.916l28.58,34.297c2.316,2.778,6.318,3.659,9.589,2.111c2.775-1.312,4.587-4.175,4.587-7.244V50.772
	c0-4.428-3.588-8.017-8.017-8.017c-4.428,0-8.017,3.588-8.017,8.017v29.164L270.71,45.64c-4.701-5.638-14.176-2.191-14.176,5.133
	v51.307c0,4.428,3.588,8.017,8.017,8.017S272.568,106.508,272.568,102.079z"/>
<path d="M179.04,410.455c-4.428,0-8.017,3.588-8.017,8.017v51.307c0,4.428,3.588,8.017,8.017,8.017h34.205
	c4.428,0,8.017-3.588,8.017-8.017v-51.307c0-4.428-3.588-8.017-8.017-8.017H179.04z M205.228,461.762h-18.171v-35.273h18.171
	V461.762z"/>
<path d="M273.102,426.489c4.428,0,8.017-3.588,8.017-8.017s-3.588-8.017-8.017-8.017h-34.205c-4.428,0-8.017,3.588-8.017,8.017
	v51.307c0,4.428,3.588,8.017,8.017,8.017c4.428,0,8.017-3.588,8.017-8.017v-17.637h17.637c4.428,0,8.017-3.588,8.017-8.017
	s-3.588-8.017-8.017-8.017h-17.637v-9.62H273.102z"/>
<path d="M332.96,426.489c4.428,0,8.017-3.588,8.017-8.017s-3.588-8.017-8.017-8.017h-34.205c-4.428,0-8.017,3.588-8.017,8.017
	v51.307c0,4.428,3.588,8.017,8.017,8.017s8.017-3.588,8.017-8.017v-17.637h17.637c4.428,0,8.017-3.588,8.017-8.017
	s-3.588-8.017-8.017-8.017h-17.637v-9.62H332.96z"/>
<path d="M401.37,110.096c18.566,0,33.67-15.105,33.67-33.67s-15.105-33.67-33.67-33.67c-18.566,0-33.67,15.105-33.67,33.67
	S382.804,110.096,401.37,110.096z M401.37,94.063c-1.896,0-3.72-0.309-5.433-0.866l22.204-22.204
	c0.557,1.713,0.866,3.537,0.866,5.433C419.006,86.151,411.094,94.063,401.37,94.063z M401.37,58.789c1.896,0,3.72,0.309,5.433,0.866
	l-22.204,22.204c-0.557-1.713-0.866-3.537-0.866-5.433C383.733,66.701,391.645,58.789,401.37,58.789z"/>
<path d="M110.63,42.756c-18.566,0-33.67,15.105-33.67,33.67s15.105,33.67,33.67,33.67s33.67-15.105,33.67-33.67
	S129.196,42.756,110.63,42.756z M110.63,58.789c1.896,0,3.72,0.309,5.433,0.866L93.86,81.859c-0.557-1.713-0.866-3.537-0.866-5.433
	C92.994,66.701,100.906,58.789,110.63,58.789z M110.63,94.063c-1.896,0-3.72-0.309-5.433-0.866l22.204-22.204
	c0.557,1.713,0.866,3.537,0.866,5.433C128.267,86.151,120.355,94.063,110.63,94.063z"/>
<path d="M401.37,477.795c18.566,0,33.67-15.105,33.67-33.67c0-18.566-15.105-33.67-33.67-33.67c-18.566,0-33.67,15.105-33.67,33.67
	C367.699,462.691,382.804,477.795,401.37,477.795z M401.37,461.762c-1.896,0-3.72-0.309-5.433-0.866l22.204-22.204
	c0.557,1.713,0.866,3.537,0.866,5.433C419.006,453.85,411.094,461.762,401.37,461.762z M401.37,426.489
	c1.896,0,3.72,0.309,5.433,0.866l-22.204,22.204c-0.557-1.713-0.866-3.537-0.866-5.433
	C383.733,434.4,391.645,426.489,401.37,426.489z"/>
<path d="M110.63,477.795c18.566,0,33.67-15.105,33.67-33.67c0-18.566-15.105-33.67-33.67-33.67s-33.67,15.105-33.67,33.67
	C76.96,462.691,92.065,477.795,110.63,477.795z M110.63,461.762c-1.896,0-3.72-0.309-5.433-0.866l22.204-22.204
	c0.557,1.713,0.866,3.537,0.866,5.433C128.267,453.85,120.355,461.762,110.63,461.762z M110.63,426.489
	c1.896,0,3.72,0.309,5.433,0.866L93.86,449.558c-0.557-1.713-0.866-3.537-0.866-5.433C92.994,434.4,100.906,426.489,110.63,426.489z
	"/>
<g>
</g>
<g>
</g>
<g>
</g>
<g>
</g>
<g>
</g>
<g>
</g>
<g>
</g>
<g>
</g>
<g>
</g>
<g>
</g>
<g>
</g>
<g>
</g>
<g>
</g>
<g>
</g>
<g>
</g>
</svg>
