<svg height="512pt" viewBox="0 0 512.00003 512" width="512pt" xmlns="http://www.w3.org/2000/svg"><path d="m384 238.933594h42.667969v51.199218c0 4.714844-3.820313 8.535157-8.535157 8.535157h-25.597656c-4.714844 0-8.535156-3.820313-8.535156-8.535157zm0 0" fill="#2c2f38"/><path d="m503.464844 136.535156c.050781 40.667969-9.976563 80.714844-29.183594 116.5625-3.707031 6.988282-10.945312 11.378906-18.855469 11.4375h-242.09375l-119.292969-136.535156c1.230469-37.761719 11.160157-74.734375 29.011719-108.03125 3.707031-6.988281 10.949219-11.378906 18.859375-11.433594h313.515625c7.910157.054688 15.148438 4.445313 18.855469 11.433594 19.207031 35.847656 29.234375 75.894531 29.183594 116.566406zm0 0" fill="#37474f"/><path d="m392.535156 68.265625v136.535156c-.03125 9.414063-7.65625 17.039063-17.070312 17.066407h-162.132813l-22.78125-31.316407-28.160156-38.742187-17.324219-23.808594v-59.734375c.027344-9.414063 7.652344-17.039063 17.066406-17.066406h213.332032c1.355468-.003907 2.703125.167969 4.011718.511719 2.621094.597656 5.050782 1.828124 7.082032 3.585937 3.785156 3.246094 5.964844 7.984375 5.976562 12.96875zm0 0" fill="#549414"/><path d="m366.933594 68.265625v136.535156c-.027344 9.414063-7.652344 17.039063-17.066406 17.066407h-136.535157l-22.78125-31.316407-28.160156-38.742187-17.324219-23.808594v-59.734375c.027344-9.414063 7.652344-17.039063 17.066406-17.066406h187.734376c1.351562-.003907 2.699218.167969 4.011718.511719 2.617188.597656 5.046875 1.828124 7.082032 3.585937 3.78125 3.246094 5.964843 7.984375 5.972656 12.96875zm0 0" fill="#60a917"/><path d="m326.996094 185.003906c-1.613282 1.777344-3.914063 2.773438-6.3125 2.730469h-27.90625c-1.628906.050781-3.238282-.394531-4.605469-1.28125-8.15625-5.480469-13.542969-14.222656-14.769531-23.972656-1.230469-9.75 1.824218-19.554688 8.367187-26.886719 6.828125-6.65625 15.789063-10.324219 22.699219-16.722656 1.609375-1.46875 3.09375-3.066406 4.4375-4.78125 3.9375-4.914063 6.339844-10.878906 6.914062-17.152344.082032-1.023438.082032-2.046875.082032-3.070312 0-16.726563 49.066406 48.296874 11.09375 91.136718zm0 0" fill="#f57c00"/><path d="m301.398438 185.003906c-1.613282 1.777344-3.914063 2.773438-6.316407 2.730469h-2.304687c-1.628906.050781-3.238282-.394531-4.605469-1.28125-8.15625-5.480469-13.542969-14.222656-14.769531-23.972656-1.230469-9.75 1.824218-19.554688 8.367187-26.886719 6.828125-6.65625 15.789063-10.324219 22.699219-16.722656 1.609375-1.46875 3.09375-3.066406 4.4375-4.78125 8.363281 19.628906 12.460938 48.386718-7.507812 70.914062zm0 0" fill="#ff9801"/><path d="m25.601562 128h170.664063c9.425781 0 17.066406 7.640625 17.066406 17.066406v341.332032c0 9.425781-7.640625 17.066406-17.066406 17.066406h-170.664063c-9.425781 0-17.066406-7.640625-17.066406-17.066406v-341.332032c0-9.425781 7.640625-17.066406 17.066406-17.066406zm0 0" fill="#37474f"/><path d="m25.601562 128h145.066407c9.425781 0 17.066406 7.640625 17.066406 17.066406v341.332032c0 9.425781-7.640625 17.066406-17.066406 17.066406h-145.066407c-9.425781 0-17.066406-7.640625-17.066406-17.066406v-341.332032c0-9.425781 7.640625-17.066406 17.066406-17.066406zm0 0" fill="#607d8b"/><path d="m8.535156 196.265625h204.796875v238.933594h-204.796875zm0 0" fill="#00838f"/><path d="m8.535156 196.265625h179.199219v238.933594h-179.199219zm0 0" fill="#00bcd4"/><path d="m130.730469 381.269531c-1.613281 1.777344-3.914063 2.773438-6.316407 2.730469h-27.902343c-1.628907.050781-3.238281-.394531-4.609375-1.28125-8.15625-5.480469-13.542969-14.222656-14.769532-23.972656-1.226562-9.75 1.828126-19.554688 8.371094-26.882813 6.828125-6.65625 15.785156-10.328125 22.699219-16.726562 1.609375-1.46875 3.09375-3.066407 4.4375-4.78125 3.9375-4.914063 6.339844-10.878907 6.910156-17.148438.085938-1.027343.085938-2.050781.085938-3.074219 0-16.726562 49.066406 48.300782 11.09375 91.136719zm0 0" fill="#f57c00"/><path d="m105.128906 381.269531c-1.609375 1.777344-3.914062 2.773438-6.3125 2.730469h-2.304687c-1.628907.050781-3.238281-.394531-4.609375-1.28125-8.15625-5.480469-13.542969-14.222656-14.769532-23.972656-1.226562-9.75 1.828126-19.554688 8.371094-26.882813 6.828125-6.65625 15.785156-10.328125 22.699219-16.726562 1.609375-1.46875 3.09375-3.066407 4.4375-4.78125 8.363281 19.628906 12.457031 48.386719-7.511719 70.914062zm0 0" fill="#ff9801"/><path d="m196.265625 512h-170.664063c-14.132812-.015625-25.585937-11.46875-25.601562-25.601562v-341.332032c.015625-14.132812 11.46875-25.585937 25.601562-25.601562h170.664063c14.132813.015625 25.585937 11.46875 25.601563 25.601562v341.332032c-.015626 14.132812-11.46875 25.585937-25.601563 25.601562zm-170.664063-375.464844c-4.710937.003906-8.527343 3.820313-8.535156 8.53125v341.332032c.007813 4.710937 3.824219 8.527343 8.535156 8.535156h170.664063c4.710937-.007813 8.527344-3.824219 8.535156-8.535156v-341.332032c-.007812-4.710937-3.824219-8.527344-8.535156-8.53125zm0 0"/><path d="m213.332031 443.734375h-204.796875c-4.714844 0-8.535156-3.820313-8.535156-8.535156v-238.933594c0-4.710937 3.820312-8.53125 8.535156-8.53125h204.796875c4.714844 0 8.535157 3.820313 8.535157 8.53125v238.933594c0 4.714843-3.820313 8.535156-8.535157 8.535156zm-196.265625-17.066406h187.734375v-221.867188h-187.734375zm0 0"/><path d="m136.535156 170.667969h-51.203125c-4.710937 0-8.53125-3.820313-8.53125-8.535157 0-4.710937 3.820313-8.53125 8.53125-8.53125h51.203125c4.710938 0 8.53125 3.820313 8.53125 8.53125 0 4.714844-3.820312 8.535157-8.53125 8.535157zm0 0"/><path d="m119.464844 469.332031c0 4.714844-3.820313 8.535157-8.53125 8.535157-4.714844 0-8.535156-3.820313-8.535156-8.535157 0-4.710937 3.820312-8.53125 8.535156-8.53125 4.710937 0 8.53125 3.820313 8.53125 8.53125zm0 0"/><path d="m170.667969 290.132812c0 4.714844-3.820313 8.535157-8.535157 8.535157-4.710937 0-8.53125-3.820313-8.53125-8.535157 0-4.710937 3.820313-8.53125 8.53125-8.53125 4.714844 0 8.535157 3.820313 8.535157 8.53125zm0 0"/><path d="m366.933594 93.867188c0 4.710937-3.820313 8.53125-8.535156 8.53125-4.710938 0-8.53125-3.820313-8.53125-8.53125 0-4.714844 3.820312-8.535157 8.53125-8.535157 4.714843 0 8.535156 3.820313 8.535156 8.535157zm0 0"/><path d="m455.425781 273.066406h-242.09375c-4.710937 0-8.53125-3.820312-8.53125-8.53125 0-4.714844 3.820313-8.535156 8.53125-8.535156h242.09375c4.796875-.050781 9.171875-2.746094 11.375-7.007812 37.519531-70.304688 37.507813-154.691407-.035156-224.984376-2.210937-4.230468-6.570313-6.898437-11.339844-6.941406h-313.515625c-4.800781.050782-9.175781 2.746094-11.378906 7.007813-17.167969 32.144531-26.730469 67.796875-27.960938 104.21875-.035156 2.277343-.996093 4.441406-2.660156 5.996093-1.664062 1.554688-3.890625 2.363282-6.164062 2.246094-4.710938-.164062-8.394532-4.113281-8.238282-8.824218 1.324219-39.066407 11.597657-77.3125 30.03125-111.785157 5.21875-9.730469 15.328126-15.8359372 26.371094-15.925781h313.515625c11.015625.0859375 21.109375 6.160156 26.339844 15.859375 40.300781 75.375 40.3125 165.894531.035156 241.28125-5.222656 9.730469-15.335937 15.835937-26.375 15.925781zm0 0"/><path d="m375.464844 230.398438h-162.132813c-4.710937 0-8.53125-3.820313-8.53125-8.53125 0-4.714844 3.820313-8.535157 8.53125-8.535157h162.132813c4.710937-.003906 8.527344-3.820312 8.535156-8.53125v-136.535156c-.007812-4.710937-3.824219-8.527344-8.535156-8.53125h-213.332032c-4.710937.003906-8.527343 3.820313-8.53125 8.53125v59.734375c0 4.710938-3.820312 8.535156-8.535156 8.535156-4.710937 0-8.53125-3.824218-8.53125-8.535156v-59.734375c.015625-14.132813 11.464844-25.582031 25.597656-25.597656h213.332032c14.132812.015625 25.585937 11.464843 25.601562 25.597656v136.535156c-.015625 14.132813-11.46875 25.582031-25.601562 25.597657zm0 0"/><path d="m469.34375 119.464844c-2.539062.007812-4.949219-1.121094-6.574219-3.070313l-14.769531-17.730469-14.773438 17.730469c-3.015624 3.621094-8.398437 4.113281-12.019531 1.097657-3.625-3.015626-4.117187-8.398438-1.097656-12.019532l21.332031-25.601562c1.675782-1.855469 4.058594-2.917969 6.558594-2.917969s4.882812 1.0625 6.558594 2.917969l21.332031 25.601562c2.121094 2.542969 2.578125 6.082032 1.171875 9.078125-1.402344 2.996094-4.410156 4.914063-7.71875 4.914063zm0 0"/><path d="m448 196.265625c-2.535156 0-4.9375-1.125-6.558594-3.070313l-21.332031-25.601562c-3.019531-3.621094-2.527344-9.003906 1.097656-12.019531 3.621094-3.015625 9.003907-2.523438 12.019531 1.097656l14.773438 17.730469 14.773438-17.730469c3.015624-3.621094 8.398437-4.113281 12.019531-1.097656 3.625 3.015625 4.117187 8.398437 1.097656 12.019531l-21.332031 25.601562c-1.621094 1.945313-4.023438 3.070313-6.558594 3.070313zm0 0"/><path d="m469.332031 145.066406h-42.664062c-4.714844 0-8.535157-3.820312-8.535157-8.53125 0-4.714844 3.820313-8.535156 8.535157-8.535156h42.664062c4.714844 0 8.535157 3.820312 8.535157 8.535156 0 4.710938-3.820313 8.53125-8.535157 8.53125zm0 0"/><path d="m256 385.289062c-3.449219 0-6.558594-2.078124-7.878906-5.261718-1.324219-3.183594-.601563-6.851563 1.832031-9.292969 24.210937-24.285156 57.089844-37.933594 91.382813-37.933594 34.289062 0 67.171874 13.648438 91.382812 37.933594 3.324219 3.339844 3.308594 8.746094-.03125 12.070313-3.339844 3.324218-8.746094 3.3125-12.070312-.03125-21.007813-21.066407-49.535157-32.90625-79.285157-32.90625s-58.28125 11.839843-79.285156 32.90625c-1.601563 1.613281-3.777344 2.515624-6.046875 2.515624zm0 0"/><path d="m398.1875 413.765625c-2.261719.003906-4.433594-.894531-6.03125-2.5-13.449219-13.535156-31.742188-21.148437-50.824219-21.148437-19.078125 0-37.371093 7.613281-50.820312 21.148437-3.347657 3.246094-8.679688 3.207031-11.976563-.089844s-3.335937-8.628906-.089844-11.976562c16.648438-16.738281 39.28125-26.152344 62.890626-26.152344 23.609374 0 46.242187 9.414063 62.890624 26.152344 2.441407 2.441406 3.171876 6.113281 1.851563 9.300781-1.324219 3.191406-4.4375 5.269531-7.886719 5.265625zm0 0"/><path d="m369.8125 442.140625c-2.242188.003906-4.398438-.878906-5.992188-2.457031-12.585937-12.007813-32.386718-12.007813-44.976562 0-2.167969 2.140625-5.316406 2.960937-8.257812 2.152344-2.9375-.808594-5.222657-3.125-5.992188-6.074219s.09375-6.085938 2.265625-8.226563c19.0625-18.972656 49.875-18.972656 68.941406 0 2.464844 2.429688 3.214844 6.109375 1.902344 9.3125s-4.433594 5.292969-7.894531 5.292969zm0 0"/><path d="m349.867188 452.265625c0 4.714844-3.820313 8.535156-8.535157 8.535156-4.710937 0-8.53125-3.820312-8.53125-8.535156 0-4.710937 3.820313-8.53125 8.53125-8.53125 4.714844 0 8.535157 3.820313 8.535157 8.53125zm0 0"/><path d="m59.734375 238.933594h-17.066406c-4.714844 0-8.535157-3.820313-8.535157-8.535156 0-4.710938 3.820313-8.53125 8.535157-8.53125h17.066406c4.710937 0 8.53125 3.820312 8.53125 8.53125 0 4.714843-3.820313 8.535156-8.53125 8.535156zm0 0"/><path d="m162.132812 238.933594h-68.265624c-4.714844 0-8.535157-3.820313-8.535157-8.535156 0-4.710938 3.820313-8.53125 8.535157-8.53125h68.265624c4.714844 0 8.535157 3.820312 8.535157 8.53125 0 4.714843-3.820313 8.535156-8.535157 8.535156zm0 0"/><path d="m124.414062 392.535156h-27.933593c-3.25.03125-6.441407-.875-9.1875-2.613281-10.714844-7.230469-17.613281-18.886719-18.796875-31.753906-1.445313-11.917969 2.617187-23.839844 11.035156-32.398438 4.027344-3.753906 8.449219-7.066406 13.183594-9.882812 3.4375-2.050781 6.691406-4.394531 9.726562-7.007813 4.816406-4.179687 7.878906-10.023437 8.570313-16.363281.0625-.785156.097656-1.582031.097656-2.382813-.359375-4.871093 2.675781-9.355468 7.335937-10.824218 6.546876-1.898438 13.351563 2.828125 20.714844 14.484375 12.449219 19.699219 26.039063 61.476562-2.003906 93.113281-3.25 3.613281-7.886719 5.660156-12.742188 5.628906zm1.257813-88.050781c-2.5 6.484375-6.492187 12.292969-11.660156 16.941406-3.757813 3.300781-7.804688 6.261719-12.09375 8.835938-3.722657 2.191406-7.207031 4.757812-10.402344 7.660156-4.722656 4.929687-6.945313 11.738281-6.042969 18.507813.640625 7.726562 4.710938 14.761718 11.09375 19.164062l-.085937-.128906h27.933593c10.066407-11.441406 14.328126-26.871094 11.566407-41.859375-1.523438-10.285157-5.023438-20.171875-10.308594-29.121094zm0 0"/><path d="m320.683594 196.265625h-27.9375c-3.25.035156-6.441406-.871094-9.1875-2.613281-10.710938-7.226563-17.613282-18.882813-18.796875-31.753906-1.445313-11.914063 2.617187-23.839844 11.035156-32.394532 4.027344-3.753906 8.449219-7.070312 13.183594-9.882812 3.4375-2.050782 6.695312-4.394532 9.726562-7.007813 4.816407-4.179687 7.878907-10.023437 8.574219-16.363281.058594-.789062.09375-1.582031.09375-2.382812-.359375-4.875 2.679688-9.355469 7.339844-10.824219 6.554687-1.914063 13.347656 2.832031 20.710937 14.480469 12.449219 19.703124 26.042969 61.480468-2.003906 93.117187-3.246094 3.609375-7.882813 5.65625-12.738281 5.625zm1.253906-88.050781c-2.496094 6.488281-6.492188 12.292968-11.660156 16.945312-3.757813 3.300782-7.804688 6.257813-12.09375 8.835938-3.71875 2.191406-7.203125 4.757812-10.402344 7.65625-4.71875 4.933594-6.941406 11.742187-6.039062 18.511718.636718 7.726563 4.710937 14.761719 11.09375 19.164063l-.089844-.128906h27.9375c10.066406-11.445313 14.328125-26.875 11.5625-41.863281-1.523438-10.28125-5.023438-20.167969-10.308594-29.121094zm0 0"/><path d="m418.132812 307.199219h-25.597656c-9.421875-.007813-17.058594-7.644531-17.070312-17.066407v-25.597656c0-4.714844 3.824218-8.535156 8.535156-8.535156h42.667969c4.710937 0 8.53125 3.820312 8.53125 8.535156v25.597656c-.011719 9.421876-7.644531 17.054688-17.066407 17.066407zm-25.597656-34.132813v17.066406h25.597656v-17.066406zm0 0"/><path d="m187.734375 93.867188h-8.535156c-4.710938 0-8.53125-3.820313-8.53125-8.535157 0-4.710937 3.820312-8.53125 8.53125-8.53125h8.535156c4.710937 0 8.53125 3.820313 8.53125 8.53125 0 4.714844-3.820313 8.535157-8.53125 8.535157zm0 0"/><path d="m281.601562 93.867188h-59.734374c-4.714844 0-8.535157-3.820313-8.535157-8.535157 0-4.710937 3.820313-8.53125 8.535157-8.53125h59.734374c4.710938 0 8.53125 3.820313 8.53125 8.53125 0 4.714844-3.820312 8.535157-8.53125 8.535157zm0 0"/></svg>