<svg height="512pt" viewBox="-94 0 512 512.0945" width="512pt" xmlns="http://www.w3.org/2000/svg"><g fill="#37474f"><path d="m136.582031 468.746094v26.28125c0 4.714844-3.820312 8.535156-8.535156 8.535156h-34.132813c-4.710937 0-8.535156-3.820312-8.535156-8.535156v-31.574219"/><path d="m238.980469 463.453125v31.574219c0 4.714844-3.820313 8.535156-8.53125 8.535156h-34.136719c-4.710938 0-8.53125-3.820312-8.53125-8.535156v-26.28125"/><path d="m264.582031 419.679688v25.085937c.039063 8.203125-5.773437 15.265625-13.824219 16.8125-33.449218 5.960937-67.414062 8.535156-101.378906 7.679687-25.414062-.675781-50.742187-3.246093-75.773437-7.679687-8.054688-1.546875-13.863281-8.609375-13.824219-16.8125v-25.085937zm0 0"/></g><path d="m238.980469 419.679688v25.085937c.039062 8.203125-5.769531 15.265625-13.824219 16.8125-25.03125 4.433594-50.363281 7.003906-75.777344 7.679687-25.414062-.675781-50.742187-3.246093-75.773437-7.679687-8.054688-1.546875-13.863281-8.609375-13.824219-16.8125v-25.085937zm0 0" fill="#607d8b"/><path d="m315.78125 38.578125v358.230469c.015625 8.210937-5.773438 15.285156-13.824219 16.898437-50.289062 9.472657-101.410156 13.816407-152.578125 12.96875-42.613281-.734375-85.089844-5.074219-126.972656-12.96875-8.050781-1.613281-13.84375-8.6875-13.824219-16.898437v-358.230469c-.019531-8.207031 5.773438-15.285156 13.824219-16.894531 92.367188-17.4375 187.183594-17.4375 279.550781 0 8.050781 1.609375 13.839844 8.6875 13.824219 16.894531zm0 0" fill="#545c60"/><path d="m290.179688 38.578125v358.230469c.015624 8.210937-5.773438 15.285156-13.824219 16.898437-41.882813 7.894531-84.359375 12.234375-126.976563 12.96875-42.613281-.734375-85.089844-5.074219-126.972656-12.96875-8.050781-1.613281-13.84375-8.6875-13.824219-16.898437v-358.230469c-.019531-8.207031 5.773438-15.285156 13.824219-16.894531 41.882812-7.898438 84.359375-12.234375 126.972656-12.96875 42.617188.734375 85.09375 5.070312 126.976563 12.96875 8.050781 1.609375 13.839843 8.6875 13.824219 16.894531zm0 0" fill="#7f8e94"/><path d="m315.78125 55.988281v323.414063c-54.9375 9.542968-110.644531 13.945312-166.402344 13.140625-47.203125-.691407-94.28125-5.085938-140.796875-13.140625v-323.414063c101.636719-17.644531 205.558594-17.644531 307.199219 0zm0 0" fill="#cfd8dc"/><path d="m290.179688 55.988281v323.414063c-46.515626 8.054687-93.59375 12.449218-140.800782 13.140625-47.203125-.691407-94.28125-5.085938-140.796875-13.140625v-323.414063c46.515625-8.054687 93.59375-12.449219 140.796875-13.140625 47.207032.691406 94.285156 5.085938 140.800782 13.140625zm0 0" fill="#f5f5f5"/><path d="m85.378906 332.894531c0 9.425781-7.640625 17.066407-17.066406 17.066407s-17.066406-7.640626-17.066406-17.066407 7.640625-17.066406 17.066406-17.066406 17.066406 7.640625 17.066406 17.066406zm0 0" fill="#7f8e94"/><path d="m273.113281 332.894531c0 9.425781-7.640625 17.066407-17.066406 17.066407s-17.066406-7.640626-17.066406-17.066407 7.640625-17.066406 17.066406-17.066406 17.066406 7.640625 17.066406 17.066406zm0 0" fill="#7f8e94"/><path d="m162.179688 435.386719c-47.441407-.015625-94.773438-4.476563-141.382813-13.324219-12.070313-2.335938-20.78125-12.917969-20.75-25.214844v-358.308594c-.03125-12.296874 8.683594-22.882812 20.757813-25.210937 93.417968-17.769531 189.34375-17.769531 282.757812 0 12.074219 2.332031 20.785156 12.917969 20.75 25.210937v358.308594c.035156 12.300782-8.679688 22.882813-20.757812 25.214844h.007812c-46.605469 8.847656-93.941406 13.308594-141.382812 13.324219zm0-418.316407c-46.371094.011719-92.640626 4.375-138.199219 13.023438-4.019531.800781-6.90625 4.347656-6.867188 8.449219v358.304687c-.039062 4.097656 2.839844 7.644532 6.859375 8.449219 91.316406 17.367187 185.089844 17.367187 276.40625 0h.011719c4.015625-.804687 6.894531-4.351563 6.855469-8.449219v-358.308594c.039062-4.097656-2.839844-7.640624-6.855469-8.445312-45.5625-8.652344-91.835937-13.011719-138.210937-13.023438zm0 0"/><path d="m162.179688 477.980469c-30.195313-.003907-60.328126-2.695313-90.046876-8.039063-12.148437-2.234375-20.949218-12.855468-20.886718-25.210937v-25.050781c0-4.714844 3.820312-8.535157 8.535156-8.535157 4.710938 0 8.53125 3.820313 8.53125 8.535157v25.050781c-.058594 4.089843 2.820312 7.632812 6.835938 8.410156 57.558593 10.367187 116.507812 10.367187 174.066406 0 4.011718-.777344 6.890625-4.320313 6.832031-8.410156v-25.050781c0-4.714844 3.820313-8.535157 8.535156-8.535157 4.710938 0 8.53125 3.820313 8.53125 8.535157v25.050781c.066407 12.355469-8.734375 22.976562-20.882812 25.210937-29.71875 5.34375-59.855469 8.035156-90.050781 8.039063zm0 0"/><path d="m162.179688 401.097656c-51.976563.039063-103.855469-4.417968-155.066407-13.316406-4.085937-.707031-7.066406-4.257812-7.066406-8.402344v-323.367187c0-4.148438 2.980469-7.695313 7.066406-8.40625 102.617188-17.75 207.519531-17.75 310.132813 0 4.085937.710937 7.070312 4.257812 7.066406 8.40625v323.367187c.003906 4.144532-2.980469 7.695313-7.066406 8.402344-51.207032 8.898438-103.089844 13.355469-155.066406 13.316406zm-145.066407-28.921875c96.066407 15.8125 194.070313 15.8125 290.132813 0v-308.964843c-96.0625-15.808594-194.066406-15.808594-290.132813 0zm0 0"/><path d="m128.046875 512.09375h-34.132813c-9.421874-.011719-17.054687-7.644531-17.066406-17.066406v-31.574219c0-4.710937 3.820313-8.53125 8.53125-8.53125 4.714844 0 8.535156 3.820313 8.535156 8.53125v31.574219h34.132813v-26.28125c0-4.714844 3.820313-8.535156 8.535156-8.535156 4.710938 0 8.53125 3.820312 8.53125 8.535156v26.28125c-.011719 9.421875-7.644531 17.054687-17.066406 17.066406zm0 0"/><path d="m230.449219 512.09375h-34.136719c-9.417969-.011719-17.054688-7.644531-17.066406-17.066406v-26.28125c0-4.714844 3.820312-8.535156 8.535156-8.535156 4.710938 0 8.53125 3.820312 8.53125 8.535156v26.28125h34.136719v-31.574219c0-4.710937 3.820312-8.53125 8.53125-8.53125 4.714843 0 8.535156 3.820313 8.535156 8.53125v31.574219c-.011719 9.421875-7.648437 17.054687-17.066406 17.066406zm0 0"/><path d="m68.3125 358.496094c-14.136719 0-25.597656-11.464844-25.597656-25.601563s11.460937-25.601562 25.597656-25.601562c14.140625 0 25.601562 11.464843 25.601562 25.601562-.015624 14.132813-11.46875 25.585938-25.601562 25.601563zm0-34.136719c-4.710938 0-8.53125 3.824219-8.53125 8.535156 0 4.710938 3.820312 8.535157 8.53125 8.535157 4.714844 0 8.535156-3.824219 8.535156-8.535157-.003906-4.710937-3.824218-8.527343-8.535156-8.535156zm0 0"/><path d="m256.046875 358.496094c-14.136719 0-25.597656-11.464844-25.597656-25.601563s11.460937-25.601562 25.597656-25.601562c14.140625 0 25.601563 11.464843 25.601563 25.601562-.015626 14.132813-11.46875 25.585938-25.601563 25.601563zm0-34.136719c-4.710937 0-8.53125 3.824219-8.53125 8.535156 0 4.710938 3.820313 8.535157 8.53125 8.535157 4.714844 0 8.535156-3.824219 8.535156-8.535157-.003906-4.710937-3.824219-8.527343-8.535156-8.535156zm0 0"/><path d="m145.113281 358.496094h-17.066406c-4.710937 0-8.53125-3.820313-8.53125-8.535156 0-4.710938 3.820313-8.53125 8.53125-8.53125h17.066406c4.714844 0 8.535157 3.820312 8.535157 8.53125 0 4.714843-3.820313 8.535156-8.535157 8.535156zm0 0"/><path d="m196.3125 358.496094h-17.066406c-4.710938 0-8.53125-3.820313-8.53125-8.535156 0-4.710938 3.820312-8.53125 8.53125-8.53125h17.066406c4.714844 0 8.535156 3.820312 8.535156 8.53125 0 4.714843-3.820312 8.535156-8.535156 8.535156zm0 0"/><path d="m281.648438 196.359375c-.011719 65.976563-53.492188 119.457031-119.46875 119.46875-4.273438-.011719-8.546876-.238281-12.800782-.683594-60.671875-6.542969-106.660156-57.757812-106.660156-118.785156 0-61.023437 45.988281-112.238281 106.660156-118.78125 4.253906-.445313 8.527344-.671875 12.800782-.683594 65.976562.011719 119.457031 53.492188 119.46875 119.464844zm0 0" fill="#fdd834"/><path d="m256.046875 196.359375c0-65.601563-47.753906-118.78125-106.667969-118.78125-58.910156 0-106.664062 53.179687-106.664062 118.78125 0 65.605469 47.753906 118.785156 106.664062 118.785156 58.914063 0 106.667969-53.179687 106.667969-118.785156zm0 0" fill="#ffeb3a"/><path d="m191.960938 273.160156c2.089843-7 3.574218-14.164062 4.4375-21.417968 3.804687-24.699219-3.117188-49.847657-19.027344-69.121094-.8125-.957032-2.097656-1.367188-3.3125-1.058594s-2.148438 1.28125-2.40625 2.511719c-1.199219 7.679687-3.144532 15.222656-5.800782 22.527343-.429687 1.363282-.941406 2.644532-1.367187 3.925782-.847656 2.105468-2.722656 3.628906-4.960937 4.027344-2.238282.398437-4.519532-.382813-6.046876-2.066407-2.371093-2.589843-4.96875-4.957031-7.765624-7.082031-.84375-.722656-1.992188-.96875-3.058594-.660156s-1.90625 1.136718-2.230469 2.195312c-2.050781 7.9375-9.386719 20.308594-12.886719 30.464844-3.761718 11.621094-3.761718 24.132812 0 35.753906-11.226562-4.90625-20.964844-12.671875-28.246094-22.527344-11.710937-16.085937-13.265624-37.425781-4.007812-55.039062 4.070312-6.984375 6.628906-14.746094 7.507812-22.785156.191407-2.625.046876-5.261719-.425781-7.851563-.109375-1.257812.535157-2.460937 1.644531-3.070312 1.105469-.609375 2.46875-.507813 3.472657.253906.34375.257813.597656.429687.941406.683594 5.859375 5.84375 10.222656 13.015625 12.714844 20.90625 18.429687-25.683594 22.355469-43.519531 21.417969-55.292969-.230469-4.183594-1.304688-8.277344-3.15625-12.035156-1.28125-2.472656 1.449218-5.03125 4.179687-4.007813 15.855469 6.90625 29.371094 18.257813 38.910156 32.679688 6.144531 8.386719 11.488281 17.328125 15.960938 26.710937 1.058593-2.046875 2-4.15625 2.8125-6.316406 1.886719-5.722656 3.058593-11.652344 3.5-17.664062.085937-.980469.636719-1.859376 1.480469-2.367188s1.878906-.578125 2.785156-.191406c6.402344 2.390625 18.859375 12.117187 28.074218 50.347656 12.886719 53.675781-45.140624 77.566406-45.140624 77.566406zm0 0" fill="#f57c00"/><path d="m196.398438 251.742188c3.804687-24.699219-3.117188-49.847657-19.027344-69.121094-.8125-.957032-2.097656-1.367188-3.3125-1.058594s-2.148438 1.28125-2.40625 2.511719c-1.199219 7.679687-3.144532 15.222656-5.800782 22.527343-4.183593-10.921874-7.851562 10.410157-12.203124 5.375-.8125-.957031-2.097657-1.367187-3.3125-1.058593-1.214844.308593-2.148438 1.28125-2.40625 2.511719-.769532 6.652343-5.203126-14.167969-7.765626-6.574219-.425781 1.28125-.851562 2.476562-1.28125 3.671875-1.535156 4.4375.769532 6.570312-2.300781 2.902344-2.476562-2.988282 2.472657 10.664062 0 8.53125-1.878906-1.535157-7.9375-2.21875-8.535156 0-2.046875 7.9375-5.035156 32.511718-8.53125 42.667968-1.539063 4.605469-19.96875-18.175781-20.226563-13.996094-11.710937-16.085937-13.265624-37.425781-4.007812-55.039062 4.070312-6.984375 6.628906-14.746094 7.507812-22.785156 2.132813-3.5 4.011719-6.824219 5.632813-9.984375 5.859375 5.84375 10.222656 13.015625 12.714844 20.90625 18.429687-25.683594 22.355469-43.519531 21.417969-55.292969 12.457031 12.648438 22.695312 27.300781 30.292968 43.347656 3.644532-7.503906 5.792969-15.652344 6.3125-23.980468.058594-.8125.445313-1.566407 1.074219-2.082032.632813-.515625 1.449219-.75 2.253906-.648437.324219-.066407.664063-.007813.941407.171875 8.289062 4.242187 14.660156 11.46875 17.832031 20.222656 4.496093 9.640625 7.929687 19.742188 10.242187 30.125 5.1875 20.070312-.546875 41.390625-15.105468 56.148438zm0 0" fill="#ff9801"/><path d="m162.179688 324.359375c-70.691407 0-128-57.304687-128-128 0-70.691406 57.308593-128 128-128 70.695312 0 128 57.308594 128 128-.078126 70.660156-57.339844 127.921875-128 128zm0-238.929687c-61.265626 0-110.933594 49.664062-110.933594 110.929687 0 61.269531 49.667968 110.933594 110.933594 110.933594 61.269531 0 110.933593-49.664063 110.933593-110.933594-.070312-61.238281-49.695312-110.863281-110.933593-110.929687zm0 0"/><path d="m191.996094 281.695312c-2.691406 0-5.222656-1.269531-6.832032-3.421874-1.613281-2.15625-2.113281-4.945313-1.351562-7.523438 10.25-34.773438 2.578125-58.839844-6.207031-73.308594-1.285157 4.742188-2.976563 10.054688-5.074219 15.945313-1.890625 4.996093-6.269531 8.628906-11.53125 9.558593-5.261719.929688-10.625-.980468-14.109375-5.03125-.308594-.367187-.625-.722656-.96875-1.070312-1.234375 2.917969-2.683594 5.988281-4.175781 9.152344-2.28125 4.847656-4.648438 9.859375-6.140625 14.171875-3.117188 9.765625-3.140625 20.253906-.070313 30.03125 1.1875 3.238281.3125 6.871093-2.21875 9.214843-2.535156 2.339844-6.226562 2.929688-9.363281 1.492188-18.730469-7.648438-33.3125-22.917969-40.089844-41.976562-5.25-15.65625-3.824219-32.78125 3.941407-47.355469 4.851562-7.394531 7.039062-16.222657 6.207031-25.03125-.835938-4.527344 1.15625-9.109375 5.035156-11.59375 4.050781-2.652344 9.308594-2.585938 13.292969.175781 4.058594 2.996094 7.46875 6.785156 10.023437 11.140625 15.742188-26.613281 12.066407-40.789063 9.40625-46.039063-2.097656-4.132812-1.453125-9.128906 1.628907-12.589843 3.25-3.671875 8.417968-4.972657 13.023437-3.285157 22.472656 8.039063 39.515625 29.476563 49.566406 45.339844.109375-1 .183594-1.859375.234375-2.535156.28125-3.621094 2.25-6.894531 5.316406-8.84375 3.144532-2 7.046876-2.398438 10.53125-1.082031 9.933594 3.765625 23.785157 16.605469 33.34375 56.40625 11.539063 48.074219-27.765624 78.199219-50.175781 87.414062-1.027343.425781-2.128906.644531-3.242187.644531zm-81.632813-101.84375c-1.53125 6.945313-4.074219 13.625-7.542969 19.835938-5.53125 10.421875-6.53125 22.667969-2.765624 33.851562 3.078124 8.953126 8.671874 16.824219 16.109374 22.675782-.179687-7.347656.941407-14.667969 3.308594-21.625 2-5.410156 4.285156-10.710938 6.839844-15.878906 2.296875-4.492188 4.253906-9.148438 5.859375-13.929688 1.019531-3.871094 3.960937-6.941406 7.785156-8.125 3.875-1.253906 8.125-.414062 11.230469 2.21875l1.621094 1.335938c1.667968 1.308593 3.269531 2.699218 4.792968 4.167968 2.542969-6.933594 4.425782-14.089844 5.617188-21.378906.597656-4.523438 3.804688-8.265625 8.183594-9.550781 4.492187-1.363281 9.371094.042969 12.441406 3.597656 18.277344 21.976563 25.851562 50.9375 20.667969 79.050781 19.722656-12.332031 29.472656-35.796875 24.300781-58.476562-2.4375-14.363282-8.195312-27.957032-16.8125-39.703125-1.101562 6.246093-3.144531 12.285156-6.058594 17.917969-1.523437 2.875-4.566406 4.613281-7.816406 4.464843-3.246094-.117187-6.140625-2.066406-7.476562-5.027343-.167969-.386719-15.699219-34.324219-39.707032-49.71875 1.839844 14.183593-2.441406 34.703124-22.925781 63.136718-1.886719 2.613282-5.085937 3.941406-8.269531 3.433594s-5.808594-2.769531-6.789063-5.839844c-.71875-2.199218-1.585937-4.347656-2.59375-6.433594zm29.816407 32.0625.101562.085938zm8.5-2.808593-.007813.023437zm0 0"/></svg>